<mxfile host="app.diagrams.net" agent="Mozilla/5.0 (Windows NT 10.0; Win64; x64) AppleWebKit/537.36 (KHTML, like Gecko) Chrome/140.0.0.0 Safari/537.36 Edg/140.0.0.0" version="28.2.5">
  <diagram name="第 1 页" id="lPCZRCDjE5-AbNdkFInT">
    <mxGraphModel dx="1643" dy="995" grid="1" gridSize="10" guides="1" tooltips="1" connect="1" arrows="1" fold="1" page="1" pageScale="1" pageWidth="827" pageHeight="1169" math="0" shadow="0">
      <root>
        <mxCell id="0" />
        <mxCell id="1" parent="0" />
        <mxCell id="6iBz3VEfDVyDtMxZ7u2R-1" style="edgeStyle=orthogonalEdgeStyle;rounded=0;orthogonalLoop=1;jettySize=auto;html=1;fontSize=18;entryX=0.5;entryY=0;entryDx=0;entryDy=0;fontStyle=0;fontFamily=Times New Roman;" parent="1" source="6iBz3VEfDVyDtMxZ7u2R-2" target="6iBz3VEfDVyDtMxZ7u2R-11" edge="1">
          <mxGeometry relative="1" as="geometry" />
        </mxCell>
        <mxCell id="6iBz3VEfDVyDtMxZ7u2R-2" value="Input" style="rounded=0;whiteSpace=wrap;html=1;labelBackgroundColor=none;strokeColor=default;fillColor=none;align=center;fontStyle=0;fontSize=18;direction=east;fontFamily=Times New Roman;" parent="1" vertex="1">
          <mxGeometry x="156" y="105" width="76" height="30" as="geometry" />
        </mxCell>
        <mxCell id="6iBz3VEfDVyDtMxZ7u2R-3" style="edgeStyle=orthogonalEdgeStyle;rounded=0;orthogonalLoop=1;jettySize=auto;html=1;fontSize=18;entryX=0;entryY=0.5;entryDx=0;entryDy=0;fontStyle=0;fontFamily=Times New Roman;" parent="1" source="6iBz3VEfDVyDtMxZ7u2R-24" target="6iBz3VEfDVyDtMxZ7u2R-37" edge="1">
          <mxGeometry relative="1" as="geometry">
            <Array as="points">
              <mxPoint x="256" y="543" />
              <mxPoint x="256" y="679" />
            </Array>
          </mxGeometry>
        </mxCell>
        <mxCell id="6iBz3VEfDVyDtMxZ7u2R-4" value="" style="group;strokeColor=default;dashed=1;dashPattern=8 8;fontSize=18;container=0;movable=1;resizable=1;rotatable=1;deletable=1;editable=1;locked=0;connectable=1;direction=east;fontStyle=0;fontFamily=Times New Roman;" parent="1" vertex="1" connectable="0">
          <mxGeometry x="136" y="94" width="106" height="762.5" as="geometry" />
        </mxCell>
        <mxCell id="6iBz3VEfDVyDtMxZ7u2R-5" value="" style="group;strokeColor=default;dashed=1;dashPattern=8 8;fontSize=18;container=0;direction=east;rotation=-180;fontStyle=0;fontFamily=Times New Roman;" parent="1" vertex="1" connectable="0">
          <mxGeometry x="248" y="294" width="302" height="560" as="geometry" />
        </mxCell>
        <mxCell id="6iBz3VEfDVyDtMxZ7u2R-6" value="" style="group;dashed=1;dashPattern=8 8;strokeColor=default;spacingTop=0;spacingLeft=0;fontSize=18;container=0;movable=1;resizable=1;rotatable=1;deletable=1;editable=1;locked=0;connectable=1;direction=east;fontStyle=0;fontFamily=Times New Roman;" parent="1" vertex="1" connectable="0">
          <mxGeometry x="556" y="294" width="133" height="560" as="geometry" />
        </mxCell>
        <mxCell id="6iBz3VEfDVyDtMxZ7u2R-7" value="Neck" style="text;html=1;align=center;verticalAlign=middle;resizable=0;points=[];autosize=1;strokeColor=none;fillColor=none;labelBackgroundColor=none;fontStyle=1;fontSize=15;fontFamily=Times New Roman;" parent="1" vertex="1">
          <mxGeometry x="355.5" y="829" width="60" height="30" as="geometry" />
        </mxCell>
        <mxCell id="6iBz3VEfDVyDtMxZ7u2R-8" value="Head" style="text;html=1;align=center;verticalAlign=middle;resizable=0;points=[];autosize=1;strokeColor=none;fillColor=none;labelBackgroundColor=none;fontStyle=1;fontSize=15;fontFamily=Times New Roman;" parent="1" vertex="1">
          <mxGeometry x="591" y="829" width="60" height="30" as="geometry" />
        </mxCell>
        <mxCell id="6iBz3VEfDVyDtMxZ7u2R-9" value="BackBone" style="text;html=1;align=center;verticalAlign=middle;resizable=0;points=[];autosize=1;strokeColor=none;fillColor=none;labelBackgroundColor=none;fontStyle=1;fontSize=15;fontFamily=Times New Roman;" parent="1" vertex="1">
          <mxGeometry x="149" y="829" width="90" height="30" as="geometry" />
        </mxCell>
        <mxCell id="6iBz3VEfDVyDtMxZ7u2R-10" style="edgeStyle=orthogonalEdgeStyle;rounded=0;orthogonalLoop=1;jettySize=auto;html=1;fontSize=18;entryX=0.5;entryY=0;entryDx=0;entryDy=0;fontStyle=0;fontFamily=Times New Roman;" parent="1" source="6iBz3VEfDVyDtMxZ7u2R-11" target="6iBz3VEfDVyDtMxZ7u2R-13" edge="1">
          <mxGeometry relative="1" as="geometry" />
        </mxCell>
        <mxCell id="6iBz3VEfDVyDtMxZ7u2R-11" value="Conv" style="rounded=0;whiteSpace=wrap;html=1;labelBackgroundColor=none;strokeColor=default;fillColor=none;align=center;fontStyle=0;fontSize=18;direction=east;fontFamily=Times New Roman;" parent="1" vertex="1">
          <mxGeometry x="159" y="163" width="70.00000000000004" height="30" as="geometry" />
        </mxCell>
        <mxCell id="6iBz3VEfDVyDtMxZ7u2R-12" style="edgeStyle=orthogonalEdgeStyle;rounded=0;orthogonalLoop=1;jettySize=auto;html=1;fontSize=18;entryX=0.5;entryY=0;entryDx=0;entryDy=0;fontStyle=0;fontFamily=Times New Roman;" parent="1" source="6iBz3VEfDVyDtMxZ7u2R-13" target="6iBz3VEfDVyDtMxZ7u2R-15" edge="1">
          <mxGeometry relative="1" as="geometry" />
        </mxCell>
        <mxCell id="6iBz3VEfDVyDtMxZ7u2R-13" value="Conv" style="rounded=0;whiteSpace=wrap;html=1;labelBackgroundColor=none;strokeColor=default;fillColor=none;align=center;fontStyle=0;fontSize=18;direction=east;fontFamily=Times New Roman;" parent="1" vertex="1">
          <mxGeometry x="159" y="215" width="70.00000000000004" height="30" as="geometry" />
        </mxCell>
        <mxCell id="6iBz3VEfDVyDtMxZ7u2R-14" style="edgeStyle=orthogonalEdgeStyle;rounded=0;orthogonalLoop=1;jettySize=auto;html=1;fontSize=18;entryX=0.5;entryY=0;entryDx=0;entryDy=0;fontStyle=0;fontFamily=Times New Roman;" parent="1" source="6iBz3VEfDVyDtMxZ7u2R-15" target="6iBz3VEfDVyDtMxZ7u2R-17" edge="1">
          <mxGeometry relative="1" as="geometry" />
        </mxCell>
        <mxCell id="6iBz3VEfDVyDtMxZ7u2R-15" value="C3K2_W" style="rounded=0;whiteSpace=wrap;html=1;labelBackgroundColor=none;strokeColor=default;fillColor=none;align=center;fontStyle=0;fontSize=18;direction=east;fontFamily=Times New Roman;" parent="1" vertex="1">
          <mxGeometry x="159" y="275" width="70" height="30" as="geometry" />
        </mxCell>
        <mxCell id="6iBz3VEfDVyDtMxZ7u2R-16" style="edgeStyle=orthogonalEdgeStyle;rounded=0;orthogonalLoop=1;jettySize=auto;html=1;fontSize=18;entryX=0.5;entryY=0;entryDx=0;entryDy=0;fontStyle=0;fontFamily=Times New Roman;" parent="1" source="6iBz3VEfDVyDtMxZ7u2R-17" target="6iBz3VEfDVyDtMxZ7u2R-20" edge="1">
          <mxGeometry relative="1" as="geometry" />
        </mxCell>
        <mxCell id="6iBz3VEfDVyDtMxZ7u2R-17" value="Conv" style="rounded=0;whiteSpace=wrap;html=1;labelBackgroundColor=none;strokeColor=default;fillColor=none;align=center;fontStyle=0;fontSize=18;direction=east;fontFamily=Times New Roman;" parent="1" vertex="1">
          <mxGeometry x="159" y="335" width="70.00000000000004" height="30" as="geometry" />
        </mxCell>
        <mxCell id="6iBz3VEfDVyDtMxZ7u2R-18" style="edgeStyle=orthogonalEdgeStyle;rounded=0;orthogonalLoop=1;jettySize=auto;html=1;fontSize=18;entryX=0.5;entryY=0;entryDx=0;entryDy=0;fontStyle=0;fontFamily=Times New Roman;" parent="1" source="6iBz3VEfDVyDtMxZ7u2R-20" target="6iBz3VEfDVyDtMxZ7u2R-22" edge="1">
          <mxGeometry relative="1" as="geometry" />
        </mxCell>
        <mxCell id="rapPshUDSgQeHGpEtebV-106" style="edgeStyle=orthogonalEdgeStyle;rounded=0;orthogonalLoop=1;jettySize=auto;html=1;entryX=0;entryY=0.5;entryDx=0;entryDy=0;fontStyle=0;fontFamily=Times New Roman;" parent="1" source="6iBz3VEfDVyDtMxZ7u2R-20" target="6iBz3VEfDVyDtMxZ7u2R-44" edge="1">
          <mxGeometry relative="1" as="geometry">
            <Array as="points">
              <mxPoint x="256" y="411" />
              <mxPoint x="256" y="329" />
            </Array>
          </mxGeometry>
        </mxCell>
        <mxCell id="6iBz3VEfDVyDtMxZ7u2R-20" value="C3K2_W" style="rounded=0;whiteSpace=wrap;html=1;labelBackgroundColor=none;strokeColor=default;fillColor=none;align=center;fontStyle=0;fontSize=18;direction=east;fontFamily=Times New Roman;" parent="1" vertex="1">
          <mxGeometry x="159" y="396" width="70.00000000000004" height="30" as="geometry" />
        </mxCell>
        <mxCell id="6iBz3VEfDVyDtMxZ7u2R-21" style="edgeStyle=orthogonalEdgeStyle;rounded=0;orthogonalLoop=1;jettySize=auto;html=1;fontSize=18;entryX=0.5;entryY=0;entryDx=0;entryDy=0;fontStyle=0;fontFamily=Times New Roman;" parent="1" source="6iBz3VEfDVyDtMxZ7u2R-22" target="6iBz3VEfDVyDtMxZ7u2R-24" edge="1">
          <mxGeometry relative="1" as="geometry" />
        </mxCell>
        <mxCell id="6iBz3VEfDVyDtMxZ7u2R-22" value="Conv" style="rounded=0;whiteSpace=wrap;html=1;labelBackgroundColor=none;strokeColor=default;fillColor=none;align=center;fontStyle=0;fontSize=18;direction=east;fontFamily=Times New Roman;" parent="1" vertex="1">
          <mxGeometry x="159" y="458" width="70.00000000000004" height="30" as="geometry" />
        </mxCell>
        <mxCell id="6iBz3VEfDVyDtMxZ7u2R-23" style="edgeStyle=orthogonalEdgeStyle;rounded=0;orthogonalLoop=1;jettySize=auto;html=1;fontSize=18;entryX=0.5;entryY=0;entryDx=0;entryDy=0;fontStyle=0;fontFamily=Times New Roman;" parent="1" source="6iBz3VEfDVyDtMxZ7u2R-24" target="6iBz3VEfDVyDtMxZ7u2R-26" edge="1">
          <mxGeometry relative="1" as="geometry" />
        </mxCell>
        <mxCell id="6iBz3VEfDVyDtMxZ7u2R-24" value="C3K2_W" style="rounded=0;whiteSpace=wrap;html=1;labelBackgroundColor=none;strokeColor=default;fillColor=none;align=center;fontStyle=0;fontSize=18;direction=east;fontFamily=Times New Roman;" parent="1" vertex="1">
          <mxGeometry x="159" y="528" width="70.00000000000004" height="30" as="geometry" />
        </mxCell>
        <mxCell id="6iBz3VEfDVyDtMxZ7u2R-25" style="edgeStyle=orthogonalEdgeStyle;rounded=0;orthogonalLoop=1;jettySize=auto;html=1;fontSize=18;entryX=0.5;entryY=0;entryDx=0;entryDy=0;fontStyle=0;fontFamily=Times New Roman;" parent="1" source="6iBz3VEfDVyDtMxZ7u2R-26" target="6iBz3VEfDVyDtMxZ7u2R-28" edge="1">
          <mxGeometry relative="1" as="geometry" />
        </mxCell>
        <mxCell id="6iBz3VEfDVyDtMxZ7u2R-26" value="Conv" style="rounded=0;whiteSpace=wrap;html=1;labelBackgroundColor=none;strokeColor=default;fillColor=none;align=center;fontStyle=0;fontSize=18;direction=east;fontFamily=Times New Roman;" parent="1" vertex="1">
          <mxGeometry x="159" y="592" width="70.00000000000004" height="30" as="geometry" />
        </mxCell>
        <mxCell id="6iBz3VEfDVyDtMxZ7u2R-27" style="edgeStyle=orthogonalEdgeStyle;rounded=0;orthogonalLoop=1;jettySize=auto;html=1;fontSize=18;entryX=0.5;entryY=0;entryDx=0;entryDy=0;fontStyle=0;fontFamily=Times New Roman;" parent="1" source="6iBz3VEfDVyDtMxZ7u2R-28" target="6iBz3VEfDVyDtMxZ7u2R-30" edge="1">
          <mxGeometry relative="1" as="geometry" />
        </mxCell>
        <mxCell id="6iBz3VEfDVyDtMxZ7u2R-28" value="C3K2_W" style="rounded=0;whiteSpace=wrap;html=1;labelBackgroundColor=none;strokeColor=default;fillColor=none;align=center;fontStyle=0;fontSize=18;direction=east;fontFamily=Times New Roman;" parent="1" vertex="1">
          <mxGeometry x="159" y="662" width="70.00000000000004" height="30" as="geometry" />
        </mxCell>
        <mxCell id="6iBz3VEfDVyDtMxZ7u2R-29" style="edgeStyle=orthogonalEdgeStyle;rounded=0;orthogonalLoop=1;jettySize=auto;html=1;fontSize=18;entryX=0.5;entryY=0;entryDx=0;entryDy=0;fontStyle=0;fontFamily=Times New Roman;" parent="1" source="6iBz3VEfDVyDtMxZ7u2R-30" target="6iBz3VEfDVyDtMxZ7u2R-33" edge="1">
          <mxGeometry relative="1" as="geometry" />
        </mxCell>
        <mxCell id="6iBz3VEfDVyDtMxZ7u2R-30" value="SPPF" style="rounded=0;whiteSpace=wrap;html=1;labelBackgroundColor=none;strokeColor=default;fillColor=none;align=center;fontStyle=0;fontSize=18;direction=east;fontFamily=Times New Roman;" parent="1" vertex="1">
          <mxGeometry x="159" y="732" width="70.00000000000004" height="30" as="geometry" />
        </mxCell>
        <mxCell id="rapPshUDSgQeHGpEtebV-112" style="edgeStyle=orthogonalEdgeStyle;rounded=0;orthogonalLoop=1;jettySize=auto;html=1;entryX=0;entryY=0.75;entryDx=0;entryDy=0;fontStyle=0;fontFamily=Times New Roman;" parent="1" source="6iBz3VEfDVyDtMxZ7u2R-33" target="6iBz3VEfDVyDtMxZ7u2R-58" edge="1">
          <mxGeometry relative="1" as="geometry">
            <Array as="points">
              <mxPoint x="416" y="814" />
              <mxPoint x="416" y="745" />
            </Array>
          </mxGeometry>
        </mxCell>
        <mxCell id="rapPshUDSgQeHGpEtebV-113" style="edgeStyle=orthogonalEdgeStyle;rounded=0;orthogonalLoop=1;jettySize=auto;html=1;entryX=0.5;entryY=1;entryDx=0;entryDy=0;fontStyle=0;fontFamily=Times New Roman;" parent="1" source="6iBz3VEfDVyDtMxZ7u2R-33" target="6iBz3VEfDVyDtMxZ7u2R-35" edge="1">
          <mxGeometry relative="1" as="geometry" />
        </mxCell>
        <mxCell id="6iBz3VEfDVyDtMxZ7u2R-33" value="C2B" style="rounded=0;whiteSpace=wrap;html=1;labelBackgroundColor=none;strokeColor=default;fillColor=none;align=center;fontStyle=0;fontSize=18;direction=east;fontFamily=Times New Roman;" parent="1" vertex="1">
          <mxGeometry x="154" y="799" width="80.00000000000004" height="30" as="geometry" />
        </mxCell>
        <mxCell id="6iBz3VEfDVyDtMxZ7u2R-34" value="" style="edgeStyle=orthogonalEdgeStyle;rounded=0;orthogonalLoop=1;jettySize=auto;html=1;fontSize=18;fontStyle=0;fontFamily=Times New Roman;" parent="1" source="6iBz3VEfDVyDtMxZ7u2R-35" target="6iBz3VEfDVyDtMxZ7u2R-37" edge="1">
          <mxGeometry relative="1" as="geometry" />
        </mxCell>
        <mxCell id="6iBz3VEfDVyDtMxZ7u2R-35" value="DySample" style="rounded=0;whiteSpace=wrap;html=1;labelBackgroundColor=none;strokeColor=default;fillColor=none;align=center;fontStyle=0;fontSize=18;direction=east;fontFamily=Times New Roman;" parent="1" vertex="1">
          <mxGeometry x="276" y="745" width="100" height="30" as="geometry" />
        </mxCell>
        <mxCell id="6iBz3VEfDVyDtMxZ7u2R-36" value="" style="edgeStyle=orthogonalEdgeStyle;rounded=0;orthogonalLoop=1;jettySize=auto;html=1;fontSize=18;fontStyle=0;fontFamily=Times New Roman;" parent="1" source="6iBz3VEfDVyDtMxZ7u2R-37" target="6iBz3VEfDVyDtMxZ7u2R-39" edge="1">
          <mxGeometry relative="1" as="geometry" />
        </mxCell>
        <mxCell id="6iBz3VEfDVyDtMxZ7u2R-37" value="Concat" style="rounded=0;whiteSpace=wrap;html=1;labelBackgroundColor=none;strokeColor=default;fillColor=none;align=center;fontStyle=0;fontSize=18;direction=east;fontFamily=Times New Roman;" parent="1" vertex="1">
          <mxGeometry x="286" y="664" width="80" height="30" as="geometry" />
        </mxCell>
        <mxCell id="6iBz3VEfDVyDtMxZ7u2R-38" value="" style="edgeStyle=orthogonalEdgeStyle;rounded=0;orthogonalLoop=1;jettySize=auto;html=1;fontSize=18;fontStyle=0;fontFamily=Times New Roman;" parent="1" source="6iBz3VEfDVyDtMxZ7u2R-39" target="6iBz3VEfDVyDtMxZ7u2R-42" edge="1">
          <mxGeometry relative="1" as="geometry" />
        </mxCell>
        <mxCell id="6iBz3VEfDVyDtMxZ7u2R-39" value="C3K2_W" style="rounded=0;whiteSpace=wrap;html=1;labelBackgroundColor=none;strokeColor=default;fillColor=none;align=center;fontStyle=0;fontSize=18;direction=east;fontFamily=Times New Roman;" parent="1" vertex="1">
          <mxGeometry x="291" y="559" width="70" height="30" as="geometry" />
        </mxCell>
        <mxCell id="6iBz3VEfDVyDtMxZ7u2R-40" style="edgeStyle=orthogonalEdgeStyle;rounded=0;orthogonalLoop=1;jettySize=auto;html=1;fontSize=18;entryX=0.5;entryY=1;entryDx=0;entryDy=0;fontStyle=0;fontFamily=Times New Roman;" parent="1" source="6iBz3VEfDVyDtMxZ7u2R-42" target="6iBz3VEfDVyDtMxZ7u2R-44" edge="1">
          <mxGeometry relative="1" as="geometry" />
        </mxCell>
        <mxCell id="6iBz3VEfDVyDtMxZ7u2R-41" style="edgeStyle=orthogonalEdgeStyle;rounded=0;orthogonalLoop=1;jettySize=auto;html=1;entryX=0;entryY=0.5;entryDx=0;entryDy=0;exitX=1;exitY=0.5;exitDx=0;exitDy=0;fontSize=18;fontStyle=0;fontFamily=Times New Roman;" parent="1" source="6iBz3VEfDVyDtMxZ7u2R-39" target="6iBz3VEfDVyDtMxZ7u2R-51" edge="1">
          <mxGeometry relative="1" as="geometry" />
        </mxCell>
        <mxCell id="6iBz3VEfDVyDtMxZ7u2R-42" value="DySample" style="rounded=0;whiteSpace=wrap;html=1;labelBackgroundColor=none;strokeColor=default;fillColor=none;align=center;fontStyle=0;fontSize=18;direction=east;fontFamily=Times New Roman;" parent="1" vertex="1">
          <mxGeometry x="276" y="441" width="100" height="30" as="geometry" />
        </mxCell>
        <mxCell id="6iBz3VEfDVyDtMxZ7u2R-43" style="edgeStyle=orthogonalEdgeStyle;rounded=0;orthogonalLoop=1;jettySize=auto;html=1;fontSize=18;entryX=0;entryY=0.5;entryDx=0;entryDy=0;fontStyle=0;fontFamily=Times New Roman;" parent="1" source="6iBz3VEfDVyDtMxZ7u2R-44" target="6iBz3VEfDVyDtMxZ7u2R-47" edge="1">
          <mxGeometry relative="1" as="geometry" />
        </mxCell>
        <mxCell id="6iBz3VEfDVyDtMxZ7u2R-44" value="Concat" style="rounded=0;whiteSpace=wrap;html=1;labelBackgroundColor=none;strokeColor=default;fillColor=none;align=center;fontStyle=0;fontSize=18;direction=east;fontFamily=Times New Roman;" parent="1" vertex="1">
          <mxGeometry x="286" y="314" width="80" height="30" as="geometry" />
        </mxCell>
        <mxCell id="6iBz3VEfDVyDtMxZ7u2R-45" style="edgeStyle=orthogonalEdgeStyle;rounded=0;orthogonalLoop=1;jettySize=auto;html=1;fontSize=18;entryX=0.5;entryY=0;entryDx=0;entryDy=0;fontStyle=0;fontFamily=Times New Roman;" parent="1" source="6iBz3VEfDVyDtMxZ7u2R-47" target="6iBz3VEfDVyDtMxZ7u2R-49" edge="1">
          <mxGeometry relative="1" as="geometry" />
        </mxCell>
        <mxCell id="6iBz3VEfDVyDtMxZ7u2R-46" value="" style="edgeStyle=orthogonalEdgeStyle;rounded=0;orthogonalLoop=1;jettySize=auto;html=1;fontStyle=0;fontFamily=Times New Roman;" parent="1" source="6iBz3VEfDVyDtMxZ7u2R-47" target="6iBz3VEfDVyDtMxZ7u2R-61" edge="1">
          <mxGeometry relative="1" as="geometry" />
        </mxCell>
        <mxCell id="6iBz3VEfDVyDtMxZ7u2R-47" value="C3K2" style="rounded=0;whiteSpace=wrap;html=1;labelBackgroundColor=none;strokeColor=default;fillColor=none;align=center;fontStyle=0;fontSize=18;direction=east;fontFamily=Times New Roman;" parent="1" vertex="1">
          <mxGeometry x="453" y="314" width="70" height="30" as="geometry" />
        </mxCell>
        <mxCell id="6iBz3VEfDVyDtMxZ7u2R-66" style="edgeStyle=orthogonalEdgeStyle;rounded=0;orthogonalLoop=1;jettySize=auto;html=1;entryX=0.5;entryY=0;entryDx=0;entryDy=0;fontStyle=0;fontFamily=Times New Roman;" parent="1" source="6iBz3VEfDVyDtMxZ7u2R-49" target="6iBz3VEfDVyDtMxZ7u2R-51" edge="1">
          <mxGeometry relative="1" as="geometry" />
        </mxCell>
        <mxCell id="6iBz3VEfDVyDtMxZ7u2R-49" value="Conv" style="rounded=0;whiteSpace=wrap;html=1;labelBackgroundColor=none;strokeColor=default;fillColor=none;align=center;fontStyle=0;fontSize=18;direction=east;fontFamily=Times New Roman;" parent="1" vertex="1">
          <mxGeometry x="453" y="406" width="70" height="30" as="geometry" />
        </mxCell>
        <mxCell id="6iBz3VEfDVyDtMxZ7u2R-50" style="edgeStyle=orthogonalEdgeStyle;rounded=0;orthogonalLoop=1;jettySize=auto;html=1;fontSize=18;entryX=0.5;entryY=0;entryDx=0;entryDy=0;fontStyle=0;fontFamily=Times New Roman;" parent="1" source="6iBz3VEfDVyDtMxZ7u2R-51" target="6iBz3VEfDVyDtMxZ7u2R-54" edge="1">
          <mxGeometry relative="1" as="geometry">
            <mxPoint x="488" y="445" as="targetPoint" />
          </mxGeometry>
        </mxCell>
        <mxCell id="6iBz3VEfDVyDtMxZ7u2R-51" value="Concat" style="rounded=0;whiteSpace=wrap;html=1;labelBackgroundColor=none;strokeColor=default;fillColor=none;align=center;fontStyle=0;fontSize=18;direction=east;fontFamily=Times New Roman;" parent="1" vertex="1">
          <mxGeometry x="448" y="483" width="80" height="30" as="geometry" />
        </mxCell>
        <mxCell id="6iBz3VEfDVyDtMxZ7u2R-52" style="edgeStyle=orthogonalEdgeStyle;rounded=0;orthogonalLoop=1;jettySize=auto;html=1;fontSize=18;entryX=0.5;entryY=0;entryDx=0;entryDy=0;fontStyle=0;fontFamily=Times New Roman;" parent="1" source="6iBz3VEfDVyDtMxZ7u2R-54" target="6iBz3VEfDVyDtMxZ7u2R-56" edge="1">
          <mxGeometry relative="1" as="geometry" />
        </mxCell>
        <mxCell id="6iBz3VEfDVyDtMxZ7u2R-53" value="" style="edgeStyle=orthogonalEdgeStyle;rounded=0;orthogonalLoop=1;jettySize=auto;html=1;fontStyle=0;fontFamily=Times New Roman;" parent="1" source="6iBz3VEfDVyDtMxZ7u2R-54" target="6iBz3VEfDVyDtMxZ7u2R-62" edge="1">
          <mxGeometry relative="1" as="geometry" />
        </mxCell>
        <mxCell id="6iBz3VEfDVyDtMxZ7u2R-54" value="C3K2_W" style="rounded=0;whiteSpace=wrap;html=1;labelBackgroundColor=none;strokeColor=default;fillColor=none;align=center;fontStyle=0;fontSize=18;direction=east;fontFamily=Times New Roman;" parent="1" vertex="1">
          <mxGeometry x="453" y="565" width="70" height="30" as="geometry" />
        </mxCell>
        <mxCell id="6iBz3VEfDVyDtMxZ7u2R-55" style="edgeStyle=orthogonalEdgeStyle;rounded=0;orthogonalLoop=1;jettySize=auto;html=1;fontSize=18;entryX=0.5;entryY=0;entryDx=0;entryDy=0;fontStyle=0;fontFamily=Times New Roman;" parent="1" source="6iBz3VEfDVyDtMxZ7u2R-56" target="6iBz3VEfDVyDtMxZ7u2R-58" edge="1">
          <mxGeometry relative="1" as="geometry" />
        </mxCell>
        <mxCell id="6iBz3VEfDVyDtMxZ7u2R-56" value="Conv" style="rounded=0;whiteSpace=wrap;html=1;labelBackgroundColor=none;strokeColor=default;fillColor=none;align=center;fontStyle=0;fontSize=18;direction=east;fontFamily=Times New Roman;" parent="1" vertex="1">
          <mxGeometry x="453" y="648" width="70" height="30" as="geometry" />
        </mxCell>
        <mxCell id="6iBz3VEfDVyDtMxZ7u2R-57" value="" style="edgeStyle=orthogonalEdgeStyle;rounded=0;orthogonalLoop=1;jettySize=auto;html=1;fontSize=18;fontStyle=0;fontFamily=Times New Roman;" parent="1" source="6iBz3VEfDVyDtMxZ7u2R-58" target="6iBz3VEfDVyDtMxZ7u2R-60" edge="1">
          <mxGeometry relative="1" as="geometry" />
        </mxCell>
        <mxCell id="6iBz3VEfDVyDtMxZ7u2R-58" value="Concat" style="rounded=0;whiteSpace=wrap;html=1;labelBackgroundColor=none;strokeColor=default;fillColor=none;align=center;fontStyle=0;fontSize=18;direction=east;fontFamily=Times New Roman;" parent="1" vertex="1">
          <mxGeometry x="448" y="722" width="80" height="30" as="geometry" />
        </mxCell>
        <mxCell id="6iBz3VEfDVyDtMxZ7u2R-59" value="" style="edgeStyle=orthogonalEdgeStyle;rounded=0;orthogonalLoop=1;jettySize=auto;html=1;fontStyle=0;fontFamily=Times New Roman;" parent="1" source="6iBz3VEfDVyDtMxZ7u2R-60" target="6iBz3VEfDVyDtMxZ7u2R-63" edge="1">
          <mxGeometry relative="1" as="geometry" />
        </mxCell>
        <mxCell id="6iBz3VEfDVyDtMxZ7u2R-60" value="C3K2" style="rounded=0;whiteSpace=wrap;html=1;labelBackgroundColor=none;strokeColor=default;fillColor=none;align=center;fontStyle=0;fontSize=18;direction=east;fontFamily=Times New Roman;" parent="1" vertex="1">
          <mxGeometry x="453" y="787" width="70" height="30" as="geometry" />
        </mxCell>
        <mxCell id="6iBz3VEfDVyDtMxZ7u2R-61" value="Detect" style="rounded=0;whiteSpace=wrap;html=1;labelBackgroundColor=none;strokeColor=default;fillColor=none;align=center;fontStyle=0;fontSize=18;movable=1;resizable=1;rotatable=1;deletable=1;editable=1;locked=0;connectable=1;direction=east;fontFamily=Times New Roman;" parent="1" vertex="1">
          <mxGeometry x="591" y="314" width="80" height="30" as="geometry" />
        </mxCell>
        <mxCell id="6iBz3VEfDVyDtMxZ7u2R-62" value="&lt;span style=&quot;color: rgb(0, 0, 0); font-style: normal; font-variant-ligatures: normal; font-variant-caps: normal; letter-spacing: normal; orphans: 2; text-align: center; text-indent: 0px; text-transform: none; widows: 2; word-spacing: 0px; -webkit-text-stroke-width: 0px; white-space: normal; background-color: rgb(251, 251, 251); text-decoration-thickness: initial; text-decoration-style: initial; text-decoration-color: initial; float: none; display: inline !important;&quot;&gt;Detect&lt;/span&gt;" style="rounded=0;whiteSpace=wrap;html=1;labelBackgroundColor=none;strokeColor=default;fillColor=none;align=center;fontStyle=0;fontSize=18;movable=1;resizable=1;rotatable=1;deletable=1;editable=1;locked=0;connectable=1;direction=east;fontFamily=Times New Roman;" parent="1" vertex="1">
          <mxGeometry x="591" y="565" width="80" height="30" as="geometry" />
        </mxCell>
        <mxCell id="6iBz3VEfDVyDtMxZ7u2R-63" value="&lt;span style=&quot;color: rgb(0, 0, 0); font-style: normal; font-variant-ligatures: normal; font-variant-caps: normal; letter-spacing: normal; orphans: 2; text-align: center; text-indent: 0px; text-transform: none; widows: 2; word-spacing: 0px; -webkit-text-stroke-width: 0px; white-space: normal; background-color: rgb(251, 251, 251); text-decoration-thickness: initial; text-decoration-style: initial; text-decoration-color: initial; float: none; display: inline !important;&quot;&gt;Detect&lt;/span&gt;" style="rounded=0;whiteSpace=wrap;html=1;labelBackgroundColor=none;strokeColor=default;fillColor=none;align=center;fontStyle=0;fontSize=18;movable=1;resizable=1;rotatable=1;deletable=1;editable=1;locked=0;connectable=1;direction=east;fontFamily=Times New Roman;" parent="1" vertex="1">
          <mxGeometry x="591" y="787" width="80" height="30" as="geometry" />
        </mxCell>
        <mxCell id="6iBz3VEfDVyDtMxZ7u2R-68" value="" style="group;strokeColor=default;dashed=1;dashPattern=8 8;fontSize=18;container=0;direction=east;rotation=-180;fontStyle=0;fontFamily=Times New Roman;" parent="1" vertex="1" connectable="0">
          <mxGeometry x="249" y="94.5" width="441.5" height="192" as="geometry" />
        </mxCell>
        <mxCell id="6iBz3VEfDVyDtMxZ7u2R-112" value="" style="group;fontStyle=0;fontFamily=Times New Roman;" parent="1" vertex="1" connectable="0">
          <mxGeometry x="256" y="114" width="431" height="86" as="geometry" />
        </mxCell>
        <mxCell id="6iBz3VEfDVyDtMxZ7u2R-69" value="Detect" style="rounded=0;whiteSpace=wrap;html=1;labelBackgroundColor=none;strokeColor=default;fillColor=none;align=center;fontStyle=0;fontSize=18;movable=1;resizable=1;rotatable=1;deletable=1;editable=1;locked=0;connectable=1;direction=east;fontFamily=Times New Roman;" parent="6iBz3VEfDVyDtMxZ7u2R-112" vertex="1">
          <mxGeometry y="33" width="70" height="30" as="geometry" />
        </mxCell>
        <mxCell id="6iBz3VEfDVyDtMxZ7u2R-73" value="" style="edgeStyle=orthogonalEdgeStyle;rounded=0;orthogonalLoop=1;jettySize=auto;html=1;fontStyle=0;fontFamily=Times New Roman;" parent="6iBz3VEfDVyDtMxZ7u2R-112" source="6iBz3VEfDVyDtMxZ7u2R-70" target="6iBz3VEfDVyDtMxZ7u2R-71" edge="1">
          <mxGeometry relative="1" as="geometry" />
        </mxCell>
        <mxCell id="6iBz3VEfDVyDtMxZ7u2R-70" value="CBS" style="rounded=0;whiteSpace=wrap;html=1;labelBackgroundColor=none;strokeColor=default;fillColor=none;align=center;fontStyle=0;fontSize=18;direction=east;fontFamily=Times New Roman;" parent="6iBz3VEfDVyDtMxZ7u2R-112" vertex="1">
          <mxGeometry x="128" width="60" height="30" as="geometry" />
        </mxCell>
        <mxCell id="6iBz3VEfDVyDtMxZ7u2R-74" value="" style="edgeStyle=orthogonalEdgeStyle;rounded=0;orthogonalLoop=1;jettySize=auto;html=1;fontStyle=0;fontFamily=Times New Roman;" parent="6iBz3VEfDVyDtMxZ7u2R-112" source="6iBz3VEfDVyDtMxZ7u2R-71" target="6iBz3VEfDVyDtMxZ7u2R-72" edge="1">
          <mxGeometry relative="1" as="geometry" />
        </mxCell>
        <mxCell id="6iBz3VEfDVyDtMxZ7u2R-71" value="CBS" style="rounded=0;whiteSpace=wrap;html=1;labelBackgroundColor=none;strokeColor=default;fillColor=none;align=center;fontStyle=0;fontSize=18;direction=east;fontFamily=Times New Roman;" parent="6iBz3VEfDVyDtMxZ7u2R-112" vertex="1">
          <mxGeometry x="230" width="60" height="30" as="geometry" />
        </mxCell>
        <mxCell id="6iBz3VEfDVyDtMxZ7u2R-110" style="edgeStyle=orthogonalEdgeStyle;rounded=0;orthogonalLoop=1;jettySize=auto;html=1;fontStyle=0;fontFamily=Times New Roman;" parent="6iBz3VEfDVyDtMxZ7u2R-112" source="6iBz3VEfDVyDtMxZ7u2R-72" edge="1">
          <mxGeometry relative="1" as="geometry">
            <mxPoint x="422" y="15" as="targetPoint" />
          </mxGeometry>
        </mxCell>
        <mxCell id="6iBz3VEfDVyDtMxZ7u2R-72" value="Conv2d" style="rounded=0;whiteSpace=wrap;html=1;labelBackgroundColor=none;strokeColor=default;fillColor=none;align=center;fontStyle=0;fontSize=18;direction=east;fontFamily=Times New Roman;" parent="6iBz3VEfDVyDtMxZ7u2R-112" vertex="1">
          <mxGeometry x="330" width="70" height="30" as="geometry" />
        </mxCell>
        <mxCell id="6iBz3VEfDVyDtMxZ7u2R-77" value="" style="edgeStyle=orthogonalEdgeStyle;rounded=0;orthogonalLoop=1;jettySize=auto;html=1;fontStyle=0;fontFamily=Times New Roman;" parent="6iBz3VEfDVyDtMxZ7u2R-112" source="6iBz3VEfDVyDtMxZ7u2R-78" target="6iBz3VEfDVyDtMxZ7u2R-80" edge="1">
          <mxGeometry relative="1" as="geometry" />
        </mxCell>
        <mxCell id="6iBz3VEfDVyDtMxZ7u2R-78" value="CBS" style="rounded=0;whiteSpace=wrap;html=1;labelBackgroundColor=none;strokeColor=default;fillColor=none;align=center;fontStyle=0;fontSize=18;direction=east;fontFamily=Times New Roman;" parent="6iBz3VEfDVyDtMxZ7u2R-112" vertex="1">
          <mxGeometry x="128" y="56" width="60" height="30" as="geometry" />
        </mxCell>
        <mxCell id="6iBz3VEfDVyDtMxZ7u2R-79" value="" style="edgeStyle=orthogonalEdgeStyle;rounded=0;orthogonalLoop=1;jettySize=auto;html=1;fontStyle=0;fontFamily=Times New Roman;" parent="6iBz3VEfDVyDtMxZ7u2R-112" source="6iBz3VEfDVyDtMxZ7u2R-80" target="6iBz3VEfDVyDtMxZ7u2R-82" edge="1">
          <mxGeometry relative="1" as="geometry" />
        </mxCell>
        <mxCell id="6iBz3VEfDVyDtMxZ7u2R-80" value="CBS" style="rounded=0;whiteSpace=wrap;html=1;labelBackgroundColor=none;strokeColor=default;fillColor=none;align=center;fontStyle=0;fontSize=18;direction=east;fontFamily=Times New Roman;" parent="6iBz3VEfDVyDtMxZ7u2R-112" vertex="1">
          <mxGeometry x="230" y="56" width="60" height="30" as="geometry" />
        </mxCell>
        <mxCell id="6iBz3VEfDVyDtMxZ7u2R-111" style="edgeStyle=orthogonalEdgeStyle;rounded=0;orthogonalLoop=1;jettySize=auto;html=1;fontStyle=0;fontFamily=Times New Roman;" parent="6iBz3VEfDVyDtMxZ7u2R-112" source="6iBz3VEfDVyDtMxZ7u2R-82" edge="1">
          <mxGeometry relative="1" as="geometry">
            <mxPoint x="422" y="71" as="targetPoint" />
          </mxGeometry>
        </mxCell>
        <mxCell id="6iBz3VEfDVyDtMxZ7u2R-82" value="Conv2d" style="rounded=0;whiteSpace=wrap;html=1;labelBackgroundColor=none;strokeColor=default;fillColor=none;align=center;fontStyle=0;fontSize=18;direction=east;fontFamily=Times New Roman;" parent="6iBz3VEfDVyDtMxZ7u2R-112" vertex="1">
          <mxGeometry x="330" y="56" width="70" height="30" as="geometry" />
        </mxCell>
        <mxCell id="6iBz3VEfDVyDtMxZ7u2R-91" style="edgeStyle=orthogonalEdgeStyle;rounded=0;orthogonalLoop=1;jettySize=auto;html=1;entryX=0;entryY=0.5;entryDx=0;entryDy=0;fontStyle=0;fontFamily=Times New Roman;" parent="6iBz3VEfDVyDtMxZ7u2R-112" source="6iBz3VEfDVyDtMxZ7u2R-90" target="6iBz3VEfDVyDtMxZ7u2R-70" edge="1">
          <mxGeometry relative="1" as="geometry">
            <Array as="points">
              <mxPoint x="111" y="48" />
              <mxPoint x="111" y="15" />
            </Array>
          </mxGeometry>
        </mxCell>
        <mxCell id="6iBz3VEfDVyDtMxZ7u2R-92" style="edgeStyle=orthogonalEdgeStyle;rounded=0;orthogonalLoop=1;jettySize=auto;html=1;entryX=0;entryY=0.5;entryDx=0;entryDy=0;fontStyle=0;fontFamily=Times New Roman;" parent="6iBz3VEfDVyDtMxZ7u2R-112" source="6iBz3VEfDVyDtMxZ7u2R-90" target="6iBz3VEfDVyDtMxZ7u2R-78" edge="1">
          <mxGeometry relative="1" as="geometry" />
        </mxCell>
        <mxCell id="6iBz3VEfDVyDtMxZ7u2R-90" value="=" style="rounded=0;whiteSpace=wrap;html=1;labelBackgroundColor=none;strokeColor=none;fillColor=none;align=center;fontStyle=0;fontSize=18;movable=1;resizable=1;rotatable=1;deletable=1;editable=1;locked=0;connectable=1;direction=east;aspect=fixed;fontFamily=Times New Roman;" parent="6iBz3VEfDVyDtMxZ7u2R-112" vertex="1">
          <mxGeometry x="71" y="38" width="20" height="20" as="geometry" />
        </mxCell>
        <mxCell id="rapPshUDSgQeHGpEtebV-116" value="" style="group;strokeColor=default;dashed=1;dashPattern=8 8;fontSize=18;container=0;direction=east;rotation=0;fontStyle=0;fontFamily=Times New Roman;" parent="1" vertex="1" connectable="0">
          <mxGeometry x="136" y="861" width="554.5" height="183" as="geometry" />
        </mxCell>
        <mxCell id="rapPshUDSgQeHGpEtebV-35" value="n" style="text;html=1;align=center;verticalAlign=middle;resizable=0;points=[];autosize=1;strokeColor=none;fillColor=none;fontSize=16;rotation=0;fontStyle=0;fontFamily=Times New Roman;" parent="1" vertex="1">
          <mxGeometry x="400" y="929" width="30" height="30" as="geometry" />
        </mxCell>
        <mxCell id="rapPshUDSgQeHGpEtebV-121" style="edgeStyle=orthogonalEdgeStyle;rounded=0;orthogonalLoop=1;jettySize=auto;html=1;entryX=0;entryY=0.5;entryDx=0;entryDy=0;fontStyle=0;fontFamily=Times New Roman;" parent="1" source="rapPshUDSgQeHGpEtebV-69" target="rapPshUDSgQeHGpEtebV-74" edge="1">
          <mxGeometry relative="1" as="geometry" />
        </mxCell>
        <mxCell id="rapPshUDSgQeHGpEtebV-122" value="Split" style="edgeLabel;html=1;align=center;verticalAlign=middle;resizable=0;points=[];labelBackgroundColor=none;fontSize=13;fontStyle=0;fontFamily=Times New Roman;" parent="rapPshUDSgQeHGpEtebV-121" vertex="1" connectable="0">
          <mxGeometry x="-0.0424" y="-1" relative="1" as="geometry">
            <mxPoint x="-1" y="8" as="offset" />
          </mxGeometry>
        </mxCell>
        <mxCell id="rapPshUDSgQeHGpEtebV-132" style="edgeStyle=orthogonalEdgeStyle;rounded=0;orthogonalLoop=1;jettySize=auto;html=1;entryX=0.5;entryY=0;entryDx=0;entryDy=0;fontStyle=0;fontFamily=Times New Roman;" parent="1" source="rapPshUDSgQeHGpEtebV-69" target="rapPshUDSgQeHGpEtebV-76" edge="1">
          <mxGeometry relative="1" as="geometry">
            <Array as="points">
              <mxPoint x="300" y="990" />
              <mxPoint x="300" y="955" />
              <mxPoint x="557" y="955" />
            </Array>
          </mxGeometry>
        </mxCell>
        <mxCell id="rapPshUDSgQeHGpEtebV-69" value="CBS" style="rounded=0;whiteSpace=wrap;html=1;fillColor=none;fontSize=15;fontFamily=Times New Roman;rotation=0;fontStyle=0" parent="1" vertex="1">
          <mxGeometry x="236" y="975" width="50" height="30" as="geometry" />
        </mxCell>
        <mxCell id="rapPshUDSgQeHGpEtebV-75" value="" style="edgeStyle=orthogonalEdgeStyle;rounded=0;orthogonalLoop=1;jettySize=auto;html=1;fontSize=15;fontStyle=0;fontFamily=Times New Roman;" parent="1" source="rapPshUDSgQeHGpEtebV-76" target="rapPshUDSgQeHGpEtebV-78" edge="1">
          <mxGeometry relative="1" as="geometry" />
        </mxCell>
        <mxCell id="rapPshUDSgQeHGpEtebV-76" value="Concat" style="rounded=0;whiteSpace=wrap;html=1;fillColor=none;fontSize=15;fontFamily=Times New Roman;rotation=0;fontStyle=0" parent="1" vertex="1">
          <mxGeometry x="527" y="975" width="60" height="30" as="geometry" />
        </mxCell>
        <mxCell id="rapPshUDSgQeHGpEtebV-102" value="" style="edgeStyle=orthogonalEdgeStyle;rounded=0;orthogonalLoop=1;jettySize=auto;html=1;fontStyle=0;fontFamily=Times New Roman;" parent="1" source="rapPshUDSgQeHGpEtebV-77" target="rapPshUDSgQeHGpEtebV-76" edge="1">
          <mxGeometry relative="1" as="geometry" />
        </mxCell>
        <mxCell id="rapPshUDSgQeHGpEtebV-77" value="BiFormer" style="rounded=0;whiteSpace=wrap;html=1;fillColor=none;fontSize=15;fontFamily=Times New Roman;rotation=0;fontStyle=0" parent="1" vertex="1">
          <mxGeometry x="429" y="975" width="70" height="30" as="geometry" />
        </mxCell>
        <mxCell id="rapPshUDSgQeHGpEtebV-137" style="edgeStyle=orthogonalEdgeStyle;rounded=0;orthogonalLoop=1;jettySize=auto;html=1;fontStyle=0;fontFamily=Times New Roman;" parent="1" source="rapPshUDSgQeHGpEtebV-78" edge="1">
          <mxGeometry relative="1" as="geometry">
            <mxPoint x="686" y="990" as="targetPoint" />
          </mxGeometry>
        </mxCell>
        <mxCell id="rapPshUDSgQeHGpEtebV-78" value="CBS" style="rounded=0;whiteSpace=wrap;html=1;fillColor=none;fontSize=15;fontFamily=Times New Roman;rotation=0;fontStyle=0" parent="1" vertex="1">
          <mxGeometry x="614" y="975" width="50" height="30" as="geometry" />
        </mxCell>
        <mxCell id="rapPshUDSgQeHGpEtebV-74" value="BiFormer" style="rounded=0;whiteSpace=wrap;html=1;fillColor=none;fontSize=15;fontFamily=Times New Roman;rotation=0;fontStyle=0" parent="1" vertex="1">
          <mxGeometry x="326" y="975" width="70" height="30" as="geometry" />
        </mxCell>
        <mxCell id="rapPshUDSgQeHGpEtebV-36" value="·····" style="text;html=1;align=center;verticalAlign=middle;resizable=0;points=[];autosize=1;strokeColor=none;fillColor=none;fontSize=15;fontStyle=0;rotation=0;fontFamily=Times New Roman;" parent="1" vertex="1">
          <mxGeometry x="386" y="976" width="50" height="30" as="geometry" />
        </mxCell>
        <mxCell id="rapPshUDSgQeHGpEtebV-104" value="" style="shape=curlyBracket;whiteSpace=wrap;html=1;rounded=1;labelPosition=left;verticalLabelPosition=middle;align=right;verticalAlign=middle;rotation=-90;fontSize=16;fontStyle=0;fontFamily=Times New Roman;" parent="1" vertex="1">
          <mxGeometry x="398" y="955" width="20" height="120" as="geometry" />
        </mxCell>
        <mxCell id="rapPshUDSgQeHGpEtebV-105" value="n" style="text;html=1;align=center;verticalAlign=middle;resizable=0;points=[];autosize=1;strokeColor=none;fillColor=none;fontSize=16;rotation=0;fontStyle=0;fontFamily=Times New Roman;" parent="1" vertex="1">
          <mxGeometry x="394" y="1013" width="30" height="30" as="geometry" />
        </mxCell>
        <mxCell id="rapPshUDSgQeHGpEtebV-108" value="C2B" style="rounded=0;whiteSpace=wrap;html=1;labelBackgroundColor=none;strokeColor=default;fillColor=none;align=center;fontStyle=0;fontSize=18;direction=east;rotation=0;fontFamily=Times New Roman;" parent="1" vertex="1">
          <mxGeometry x="141" y="975" width="80.00000000000004" height="30" as="geometry" />
        </mxCell>
        <mxCell id="rapPshUDSgQeHGpEtebV-110" value="&lt;span style=&quot;color: rgb(0, 0, 0); font-style: normal; font-variant-ligatures: normal; font-variant-caps: normal; letter-spacing: normal; orphans: 2; text-indent: 0px; text-transform: none; widows: 2; word-spacing: 0px; -webkit-text-stroke-width: 0px; white-space: normal; background-color: rgb(236, 236, 236); text-decoration-thickness: initial; text-decoration-style: initial; text-decoration-color: initial; float: none; display: inline !important;&quot;&gt;&lt;font&gt;=&lt;/font&gt;&lt;/span&gt;" style="text;whiteSpace=wrap;html=1;align=center;fontSize=15;rotation=0;fontStyle=0;fontFamily=Times New Roman;" parent="1" vertex="1">
          <mxGeometry x="219" y="975" width="20" height="20" as="geometry" />
        </mxCell>
        <mxCell id="rapPshUDSgQeHGpEtebV-125" style="edgeStyle=orthogonalEdgeStyle;rounded=0;orthogonalLoop=1;jettySize=auto;html=1;entryX=0;entryY=0.5;entryDx=0;entryDy=0;fontStyle=0;fontFamily=Times New Roman;" parent="1" source="rapPshUDSgQeHGpEtebV-24" target="rapPshUDSgQeHGpEtebV-28" edge="1">
          <mxGeometry relative="1" as="geometry" />
        </mxCell>
        <mxCell id="rapPshUDSgQeHGpEtebV-131" style="edgeStyle=orthogonalEdgeStyle;rounded=0;orthogonalLoop=1;jettySize=auto;html=1;entryX=0.5;entryY=0;entryDx=0;entryDy=0;fontStyle=0;fontFamily=Times New Roman;" parent="1" source="rapPshUDSgQeHGpEtebV-24" target="rapPshUDSgQeHGpEtebV-30" edge="1">
          <mxGeometry relative="1" as="geometry">
            <Array as="points">
              <mxPoint x="300" y="904" />
              <mxPoint x="300" y="869" />
              <mxPoint x="558" y="869" />
            </Array>
          </mxGeometry>
        </mxCell>
        <mxCell id="rapPshUDSgQeHGpEtebV-24" value="Conv" style="rounded=0;whiteSpace=wrap;html=1;labelBackgroundColor=none;strokeColor=default;fillColor=none;align=center;fontStyle=0;fontSize=16;direction=east;rotation=0;fontFamily=Times New Roman;" parent="1" vertex="1">
          <mxGeometry x="235" y="889" width="50" height="30" as="geometry" />
        </mxCell>
        <mxCell id="rapPshUDSgQeHGpEtebV-28" value="WTConv" style="rounded=0;whiteSpace=wrap;html=1;labelBackgroundColor=none;strokeColor=default;fillColor=none;align=center;fontStyle=0;fontSize=16;direction=east;rotation=0;fontFamily=Times New Roman;" parent="1" vertex="1">
          <mxGeometry x="326" y="889" width="70" height="30" as="geometry" />
        </mxCell>
        <mxCell id="rapPshUDSgQeHGpEtebV-29" value="" style="edgeStyle=orthogonalEdgeStyle;rounded=0;orthogonalLoop=1;jettySize=auto;html=1;fontSize=16;fontStyle=0;fontFamily=Times New Roman;" parent="1" source="rapPshUDSgQeHGpEtebV-30" target="rapPshUDSgQeHGpEtebV-31" edge="1">
          <mxGeometry relative="1" as="geometry" />
        </mxCell>
        <mxCell id="rapPshUDSgQeHGpEtebV-30" value="Concat" style="rounded=0;whiteSpace=wrap;html=1;labelBackgroundColor=none;strokeColor=default;fillColor=none;align=center;fontStyle=0;fontSize=16;direction=east;rotation=0;fontFamily=Times New Roman;" parent="1" vertex="1">
          <mxGeometry x="528" y="889" width="60" height="30" as="geometry" />
        </mxCell>
        <mxCell id="rapPshUDSgQeHGpEtebV-136" style="edgeStyle=orthogonalEdgeStyle;rounded=0;orthogonalLoop=1;jettySize=auto;html=1;fontStyle=0;fontFamily=Times New Roman;" parent="1" source="rapPshUDSgQeHGpEtebV-31" edge="1">
          <mxGeometry relative="1" as="geometry">
            <mxPoint x="686" y="904" as="targetPoint" />
          </mxGeometry>
        </mxCell>
        <mxCell id="rapPshUDSgQeHGpEtebV-31" value="Conv" style="rounded=0;whiteSpace=wrap;html=1;labelBackgroundColor=none;strokeColor=default;fillColor=none;align=center;fontStyle=0;fontSize=16;direction=east;rotation=0;fontFamily=Times New Roman;" parent="1" vertex="1">
          <mxGeometry x="612" y="889" width="50" height="30" as="geometry" />
        </mxCell>
        <mxCell id="rapPshUDSgQeHGpEtebV-32" value="" style="edgeStyle=orthogonalEdgeStyle;rounded=0;orthogonalLoop=1;jettySize=auto;html=1;fontSize=16;fontStyle=0;fontFamily=Times New Roman;" parent="1" source="rapPshUDSgQeHGpEtebV-33" target="rapPshUDSgQeHGpEtebV-30" edge="1">
          <mxGeometry relative="1" as="geometry" />
        </mxCell>
        <mxCell id="rapPshUDSgQeHGpEtebV-33" value="WTConv" style="rounded=0;whiteSpace=wrap;html=1;labelBackgroundColor=none;strokeColor=default;fillColor=none;align=center;fontStyle=0;fontSize=16;direction=east;rotation=0;fontFamily=Times New Roman;" parent="1" vertex="1">
          <mxGeometry x="428" y="889" width="70" height="30" as="geometry" />
        </mxCell>
        <mxCell id="rapPshUDSgQeHGpEtebV-34" value="" style="shape=curlyBracket;whiteSpace=wrap;html=1;rounded=1;labelPosition=left;verticalLabelPosition=middle;align=right;verticalAlign=middle;rotation=-90;fontSize=16;size=0.5;fontStyle=0;fontFamily=Times New Roman;" parent="1" vertex="1">
          <mxGeometry x="405" y="872" width="20" height="120" as="geometry" />
        </mxCell>
        <mxCell id="rapPshUDSgQeHGpEtebV-101" value="·····" style="text;html=1;align=center;verticalAlign=middle;resizable=0;points=[];autosize=1;strokeColor=none;fillColor=none;fontSize=15;fontStyle=0;rotation=0;fontFamily=Times New Roman;" parent="1" vertex="1">
          <mxGeometry x="385" y="889" width="50" height="30" as="geometry" />
        </mxCell>
        <mxCell id="rapPshUDSgQeHGpEtebV-107" value="C3K2_W" style="rounded=0;whiteSpace=wrap;html=1;labelBackgroundColor=none;strokeColor=default;fillColor=none;align=center;fontStyle=0;fontSize=18;direction=east;rotation=0;fontFamily=Times New Roman;" parent="1" vertex="1">
          <mxGeometry x="140" y="889" width="80.00000000000004" height="30" as="geometry" />
        </mxCell>
        <mxCell id="rapPshUDSgQeHGpEtebV-109" value="&lt;span style=&quot;color: rgb(0, 0, 0); font-style: normal; font-variant-ligatures: normal; font-variant-caps: normal; letter-spacing: normal; orphans: 2; text-indent: 0px; text-transform: none; widows: 2; word-spacing: 0px; -webkit-text-stroke-width: 0px; white-space: normal; background-color: rgb(236, 236, 236); text-decoration-thickness: initial; text-decoration-style: initial; text-decoration-color: initial; float: none; display: inline !important;&quot;&gt;&lt;font&gt;=&lt;/font&gt;&lt;/span&gt;" style="text;whiteSpace=wrap;html=1;align=center;fontSize=15;rotation=0;fontStyle=0;fontFamily=Times New Roman;" parent="1" vertex="1">
          <mxGeometry x="218" y="889" width="20" height="20" as="geometry" />
        </mxCell>
        <mxCell id="rapPshUDSgQeHGpEtebV-135" value="Split" style="edgeLabel;html=1;align=center;verticalAlign=middle;resizable=0;points=[];labelBackgroundColor=none;fontSize=13;fontStyle=0;fontFamily=Times New Roman;" parent="1" vertex="1" connectable="0">
          <mxGeometry x="340" y="1075" as="geometry">
            <mxPoint x="-38" y="-163" as="offset" />
          </mxGeometry>
        </mxCell>
        <mxCell id="rapPshUDSgQeHGpEtebV-143" value="" style="group;fontFamily=Times New Roman;" parent="1" vertex="1" connectable="0">
          <mxGeometry x="256" y="233" width="419" height="30" as="geometry" />
        </mxCell>
        <mxCell id="rapPshUDSgQeHGpEtebV-84" value="CBS" style="rounded=0;whiteSpace=wrap;html=1;fillColor=none;fontSize=15;fontFamily=Times New Roman;fontStyle=0" parent="rapPshUDSgQeHGpEtebV-143" vertex="1">
          <mxGeometry width="60" height="30" as="geometry" />
        </mxCell>
        <mxCell id="rapPshUDSgQeHGpEtebV-88" value="" style="edgeStyle=orthogonalEdgeStyle;rounded=0;orthogonalLoop=1;jettySize=auto;html=1;fontSize=15;fontStyle=0;fontFamily=Times New Roman;" parent="rapPshUDSgQeHGpEtebV-143" source="rapPshUDSgQeHGpEtebV-85" target="rapPshUDSgQeHGpEtebV-86" edge="1">
          <mxGeometry relative="1" as="geometry" />
        </mxCell>
        <mxCell id="rapPshUDSgQeHGpEtebV-85" value="Conv" style="rounded=0;whiteSpace=wrap;html=1;fillColor=none;fontSize=15;fontFamily=Times New Roman;fontStyle=0" parent="rapPshUDSgQeHGpEtebV-143" vertex="1">
          <mxGeometry x="128" width="60" height="30" as="geometry" />
        </mxCell>
        <mxCell id="rapPshUDSgQeHGpEtebV-89" value="" style="edgeStyle=orthogonalEdgeStyle;rounded=0;orthogonalLoop=1;jettySize=auto;html=1;fontSize=15;fontStyle=0;fontFamily=Times New Roman;" parent="rapPshUDSgQeHGpEtebV-143" source="rapPshUDSgQeHGpEtebV-86" target="rapPshUDSgQeHGpEtebV-87" edge="1">
          <mxGeometry relative="1" as="geometry" />
        </mxCell>
        <mxCell id="rapPshUDSgQeHGpEtebV-86" value="BathNorm" style="rounded=0;whiteSpace=wrap;html=1;fillColor=none;fontSize=15;fontFamily=Times New Roman;fontStyle=0" parent="rapPshUDSgQeHGpEtebV-143" vertex="1">
          <mxGeometry x="222" width="70" height="30" as="geometry" />
        </mxCell>
        <mxCell id="rapPshUDSgQeHGpEtebV-93" style="edgeStyle=orthogonalEdgeStyle;rounded=0;orthogonalLoop=1;jettySize=auto;html=1;fontSize=15;fontStyle=0;fontFamily=Times New Roman;" parent="rapPshUDSgQeHGpEtebV-143" source="rapPshUDSgQeHGpEtebV-87" edge="1">
          <mxGeometry relative="1" as="geometry">
            <mxPoint x="419" y="15" as="targetPoint" />
          </mxGeometry>
        </mxCell>
        <mxCell id="rapPshUDSgQeHGpEtebV-87" value="SiLU" style="rounded=0;whiteSpace=wrap;html=1;fillColor=none;fontSize=15;fontFamily=Times New Roman;fontStyle=0" parent="rapPshUDSgQeHGpEtebV-143" vertex="1">
          <mxGeometry x="328" width="60" height="30" as="geometry" />
        </mxCell>
        <mxCell id="rapPshUDSgQeHGpEtebV-90" value="&lt;span style=&quot;color: rgb(0, 0, 0); font-style: normal; font-variant-ligatures: normal; font-variant-caps: normal; letter-spacing: normal; orphans: 2; text-indent: 0px; text-transform: none; widows: 2; word-spacing: 0px; -webkit-text-stroke-width: 0px; white-space: normal; background-color: rgb(236, 236, 236); text-decoration-thickness: initial; text-decoration-style: initial; text-decoration-color: initial; float: none; display: inline !important;&quot;&gt;&lt;font&gt;=&lt;/font&gt;&lt;/span&gt;" style="text;whiteSpace=wrap;html=1;align=center;fontSize=15;fontStyle=0;fontFamily=Times New Roman;" parent="rapPshUDSgQeHGpEtebV-143" vertex="1">
          <mxGeometry x="69" width="20" height="20" as="geometry" />
        </mxCell>
        <mxCell id="rapPshUDSgQeHGpEtebV-138" value="" style="edgeStyle=orthogonalEdgeStyle;rounded=0;orthogonalLoop=1;jettySize=auto;html=1;fontFamily=Times New Roman;" parent="rapPshUDSgQeHGpEtebV-143" edge="1">
          <mxGeometry relative="1" as="geometry">
            <mxPoint x="90" y="15" as="sourcePoint" />
            <mxPoint x="128" y="14.950000000000017" as="targetPoint" />
            <Array as="points">
              <mxPoint x="115" y="14.950000000000017" />
              <mxPoint x="36" y="14.950000000000017" />
            </Array>
          </mxGeometry>
        </mxCell>
        <mxCell id="flwHNEEucCCXMPrKP5ke-1" style="edgeStyle=orthogonalEdgeStyle;rounded=0;orthogonalLoop=1;jettySize=auto;html=1;fontSize=18;entryX=0.5;entryY=0;entryDx=0;entryDy=0;fontStyle=0;fontFamily=Times New Roman;" edge="1" parent="1" source="flwHNEEucCCXMPrKP5ke-2" target="flwHNEEucCCXMPrKP5ke-11">
          <mxGeometry relative="1" as="geometry" />
        </mxCell>
        <mxCell id="flwHNEEucCCXMPrKP5ke-2" value="Input" style="rounded=0;whiteSpace=wrap;html=1;labelBackgroundColor=none;strokeColor=#6c8ebf;fillColor=#dae8fc;align=center;fontStyle=0;fontSize=18;direction=east;fontFamily=Times New Roman;" vertex="1" parent="1">
          <mxGeometry x="946" y="373.25" width="76" height="30" as="geometry" />
        </mxCell>
        <mxCell id="flwHNEEucCCXMPrKP5ke-4" value="" style="group;strokeColor=default;dashed=1;dashPattern=8 8;fontSize=18;container=0;movable=1;resizable=1;rotatable=1;deletable=1;editable=1;locked=0;connectable=1;direction=east;fontStyle=0;fontFamily=Times New Roman;" vertex="1" connectable="0" parent="1">
          <mxGeometry x="940" y="360" width="90" height="705" as="geometry" />
        </mxCell>
        <mxCell id="flwHNEEucCCXMPrKP5ke-5" value="" style="group;strokeColor=default;dashed=1;dashPattern=8 8;fontSize=18;container=0;direction=east;rotation=-180;fontStyle=0;fontFamily=Times New Roman;" vertex="1" connectable="0" parent="1">
          <mxGeometry x="1040" y="539" width="308" height="530" as="geometry" />
        </mxCell>
        <mxCell id="flwHNEEucCCXMPrKP5ke-6" value="" style="group;dashed=1;dashPattern=8 8;strokeColor=default;spacingTop=0;spacingLeft=0;fontSize=18;container=0;movable=1;resizable=1;rotatable=1;deletable=1;editable=1;locked=0;connectable=1;direction=east;fontStyle=0;fontFamily=Times New Roman;" vertex="1" connectable="0" parent="1">
          <mxGeometry x="1360" y="539" width="150" height="530" as="geometry" />
        </mxCell>
        <mxCell id="flwHNEEucCCXMPrKP5ke-7" value="Neck" style="text;html=1;align=center;verticalAlign=middle;resizable=0;points=[];autosize=1;strokeColor=none;fillColor=none;labelBackgroundColor=none;fontStyle=0;fontSize=15;fontFamily=Times New Roman;" vertex="1" parent="1">
          <mxGeometry x="1164" y="1043" width="60" height="30" as="geometry" />
        </mxCell>
        <mxCell id="flwHNEEucCCXMPrKP5ke-8" value="Head" style="text;html=1;align=center;verticalAlign=middle;resizable=0;points=[];autosize=1;strokeColor=none;fillColor=none;labelBackgroundColor=none;fontStyle=0;fontSize=15;fontFamily=Times New Roman;" vertex="1" parent="1">
          <mxGeometry x="1414" y="1043" width="60" height="30" as="geometry" />
        </mxCell>
        <mxCell id="flwHNEEucCCXMPrKP5ke-9" value="BackBone" style="text;html=1;align=center;verticalAlign=middle;resizable=0;points=[];autosize=1;strokeColor=none;fillColor=none;labelBackgroundColor=none;fontStyle=0;fontSize=15;fontFamily=Times New Roman;" vertex="1" parent="1">
          <mxGeometry x="939" y="1039" width="90" height="30" as="geometry" />
        </mxCell>
        <mxCell id="flwHNEEucCCXMPrKP5ke-10" style="edgeStyle=orthogonalEdgeStyle;rounded=0;orthogonalLoop=1;jettySize=auto;html=1;fontSize=18;entryX=0.5;entryY=0;entryDx=0;entryDy=0;fontStyle=0;fontFamily=Times New Roman;" edge="1" parent="1" source="flwHNEEucCCXMPrKP5ke-11" target="flwHNEEucCCXMPrKP5ke-13">
          <mxGeometry relative="1" as="geometry" />
        </mxCell>
        <mxCell id="flwHNEEucCCXMPrKP5ke-11" value="Conv" style="rounded=0;whiteSpace=wrap;html=1;labelBackgroundColor=none;strokeColor=#82b366;fillColor=#d5e8d4;align=center;fontStyle=0;fontSize=18;direction=east;fontFamily=Times New Roman;" vertex="1" parent="1">
          <mxGeometry x="949" y="430" width="70.00000000000004" height="30" as="geometry" />
        </mxCell>
        <mxCell id="flwHNEEucCCXMPrKP5ke-12" style="edgeStyle=orthogonalEdgeStyle;rounded=0;orthogonalLoop=1;jettySize=auto;html=1;fontSize=18;entryX=0.5;entryY=0;entryDx=0;entryDy=0;fontStyle=0;fontFamily=Times New Roman;" edge="1" parent="1" source="flwHNEEucCCXMPrKP5ke-13" target="flwHNEEucCCXMPrKP5ke-15">
          <mxGeometry relative="1" as="geometry" />
        </mxCell>
        <mxCell id="flwHNEEucCCXMPrKP5ke-13" value="Conv" style="rounded=0;whiteSpace=wrap;html=1;labelBackgroundColor=none;strokeColor=#82b366;fillColor=#d5e8d4;align=center;fontStyle=0;fontSize=18;direction=east;fontFamily=Times New Roman;" vertex="1" parent="1">
          <mxGeometry x="949" y="491" width="70.00000000000004" height="30" as="geometry" />
        </mxCell>
        <mxCell id="flwHNEEucCCXMPrKP5ke-14" style="edgeStyle=orthogonalEdgeStyle;rounded=0;orthogonalLoop=1;jettySize=auto;html=1;fontSize=18;entryX=0.5;entryY=0;entryDx=0;entryDy=0;fontStyle=0;fontFamily=Times New Roman;" edge="1" parent="1" source="flwHNEEucCCXMPrKP5ke-15" target="flwHNEEucCCXMPrKP5ke-17">
          <mxGeometry relative="1" as="geometry" />
        </mxCell>
        <mxCell id="flwHNEEucCCXMPrKP5ke-15" value="C3K2-W" style="rounded=0;whiteSpace=wrap;html=1;labelBackgroundColor=none;strokeColor=#d79b00;fillColor=#ffe6cc;align=center;fontStyle=0;fontSize=18;direction=east;fontFamily=Times New Roman;" vertex="1" parent="1">
          <mxGeometry x="949" y="557" width="70" height="30" as="geometry" />
        </mxCell>
        <mxCell id="flwHNEEucCCXMPrKP5ke-16" style="edgeStyle=orthogonalEdgeStyle;rounded=0;orthogonalLoop=1;jettySize=auto;html=1;fontSize=18;entryX=0.5;entryY=0;entryDx=0;entryDy=0;fontStyle=0;fontFamily=Times New Roman;" edge="1" parent="1" source="flwHNEEucCCXMPrKP5ke-17" target="flwHNEEucCCXMPrKP5ke-20">
          <mxGeometry relative="1" as="geometry" />
        </mxCell>
        <mxCell id="flwHNEEucCCXMPrKP5ke-17" value="Conv" style="rounded=0;whiteSpace=wrap;html=1;labelBackgroundColor=none;strokeColor=#ae4132;fillColor=#fad9d5;align=center;fontStyle=0;fontSize=18;direction=east;fontFamily=Times New Roman;" vertex="1" parent="1">
          <mxGeometry x="949" y="613" width="70.00000000000004" height="30" as="geometry" />
        </mxCell>
        <mxCell id="flwHNEEucCCXMPrKP5ke-18" style="edgeStyle=orthogonalEdgeStyle;rounded=0;orthogonalLoop=1;jettySize=auto;html=1;fontSize=18;entryX=0.5;entryY=0;entryDx=0;entryDy=0;fontStyle=0;fontFamily=Times New Roman;" edge="1" parent="1" source="flwHNEEucCCXMPrKP5ke-20" target="flwHNEEucCCXMPrKP5ke-22">
          <mxGeometry relative="1" as="geometry" />
        </mxCell>
        <mxCell id="flwHNEEucCCXMPrKP5ke-19" style="edgeStyle=orthogonalEdgeStyle;rounded=0;orthogonalLoop=1;jettySize=auto;html=1;entryX=0;entryY=0.5;entryDx=0;entryDy=0;fontStyle=0;fontFamily=Times New Roman;" edge="1" parent="1" source="flwHNEEucCCXMPrKP5ke-20" target="flwHNEEucCCXMPrKP5ke-44">
          <mxGeometry relative="1" as="geometry">
            <Array as="points">
              <mxPoint x="1050" y="690" />
              <mxPoint x="1050" y="565" />
            </Array>
          </mxGeometry>
        </mxCell>
        <mxCell id="flwHNEEucCCXMPrKP5ke-20" value="C3K2-W" style="rounded=0;whiteSpace=wrap;html=1;labelBackgroundColor=none;strokeColor=#d79b00;fillColor=#ffe6cc;align=center;fontStyle=0;fontSize=18;direction=east;fontFamily=Times New Roman;" vertex="1" parent="1">
          <mxGeometry x="949" y="675" width="70.00000000000004" height="30" as="geometry" />
        </mxCell>
        <mxCell id="flwHNEEucCCXMPrKP5ke-21" style="edgeStyle=orthogonalEdgeStyle;rounded=0;orthogonalLoop=1;jettySize=auto;html=1;fontSize=18;entryX=0.5;entryY=0;entryDx=0;entryDy=0;fontStyle=0;fontFamily=Times New Roman;" edge="1" parent="1" source="flwHNEEucCCXMPrKP5ke-22" target="flwHNEEucCCXMPrKP5ke-24">
          <mxGeometry relative="1" as="geometry" />
        </mxCell>
        <mxCell id="flwHNEEucCCXMPrKP5ke-22" value="Conv" style="rounded=0;whiteSpace=wrap;html=1;labelBackgroundColor=none;strokeColor=#ae4132;fillColor=#fad9d5;align=center;fontStyle=0;fontSize=18;direction=east;fontFamily=Times New Roman;" vertex="1" parent="1">
          <mxGeometry x="949" y="749" width="70.00000000000004" height="30" as="geometry" />
        </mxCell>
        <mxCell id="flwHNEEucCCXMPrKP5ke-23" style="edgeStyle=orthogonalEdgeStyle;rounded=0;orthogonalLoop=1;jettySize=auto;html=1;fontSize=18;entryX=0.5;entryY=0;entryDx=0;entryDy=0;fontStyle=0;fontFamily=Times New Roman;" edge="1" parent="1" source="flwHNEEucCCXMPrKP5ke-24" target="flwHNEEucCCXMPrKP5ke-26">
          <mxGeometry relative="1" as="geometry" />
        </mxCell>
        <mxCell id="flwHNEEucCCXMPrKP5ke-98" value="" style="edgeStyle=orthogonalEdgeStyle;rounded=0;orthogonalLoop=1;jettySize=auto;html=1;fontFamily=Times New Roman;" edge="1" parent="1" source="flwHNEEucCCXMPrKP5ke-24" target="flwHNEEucCCXMPrKP5ke-37">
          <mxGeometry relative="1" as="geometry" />
        </mxCell>
        <mxCell id="flwHNEEucCCXMPrKP5ke-24" value="C3K2-W" style="rounded=0;whiteSpace=wrap;html=1;labelBackgroundColor=none;strokeColor=#d79b00;fillColor=#ffe6cc;align=center;fontStyle=0;fontSize=18;direction=east;fontFamily=Times New Roman;" vertex="1" parent="1">
          <mxGeometry x="949" y="814" width="70.00000000000004" height="30" as="geometry" />
        </mxCell>
        <mxCell id="flwHNEEucCCXMPrKP5ke-25" style="edgeStyle=orthogonalEdgeStyle;rounded=0;orthogonalLoop=1;jettySize=auto;html=1;fontSize=18;entryX=0.5;entryY=0;entryDx=0;entryDy=0;fontStyle=0;fontFamily=Times New Roman;" edge="1" parent="1" source="flwHNEEucCCXMPrKP5ke-26" target="flwHNEEucCCXMPrKP5ke-28">
          <mxGeometry relative="1" as="geometry" />
        </mxCell>
        <mxCell id="flwHNEEucCCXMPrKP5ke-26" value="Conv" style="rounded=0;whiteSpace=wrap;html=1;labelBackgroundColor=none;strokeColor=#ae4132;fillColor=#fad9d5;align=center;fontStyle=0;fontSize=18;direction=east;fontFamily=Times New Roman;" vertex="1" parent="1">
          <mxGeometry x="949" y="878" width="70.00000000000004" height="30" as="geometry" />
        </mxCell>
        <mxCell id="flwHNEEucCCXMPrKP5ke-27" style="edgeStyle=orthogonalEdgeStyle;rounded=0;orthogonalLoop=1;jettySize=auto;html=1;fontSize=18;entryX=0.5;entryY=0;entryDx=0;entryDy=0;fontStyle=0;fontFamily=Times New Roman;" edge="1" parent="1" source="flwHNEEucCCXMPrKP5ke-28" target="flwHNEEucCCXMPrKP5ke-30">
          <mxGeometry relative="1" as="geometry" />
        </mxCell>
        <mxCell id="flwHNEEucCCXMPrKP5ke-28" value="C3K2-W" style="rounded=0;whiteSpace=wrap;html=1;labelBackgroundColor=none;strokeColor=#d79b00;fillColor=#ffe6cc;align=center;fontStyle=0;fontSize=18;direction=east;fontFamily=Times New Roman;" vertex="1" parent="1">
          <mxGeometry x="949" y="945" width="70.00000000000004" height="30" as="geometry" />
        </mxCell>
        <mxCell id="flwHNEEucCCXMPrKP5ke-29" style="edgeStyle=orthogonalEdgeStyle;rounded=0;orthogonalLoop=1;jettySize=auto;html=1;fontSize=18;entryX=0;entryY=0.5;entryDx=0;entryDy=0;fontStyle=0;fontFamily=Times New Roman;" edge="1" parent="1" source="flwHNEEucCCXMPrKP5ke-30" target="flwHNEEucCCXMPrKP5ke-33">
          <mxGeometry relative="1" as="geometry" />
        </mxCell>
        <mxCell id="flwHNEEucCCXMPrKP5ke-30" value="SPPF" style="rounded=0;whiteSpace=wrap;html=1;labelBackgroundColor=none;strokeColor=#996185;fillColor=#e6d0de;align=center;fontStyle=0;fontSize=18;direction=east;fontFamily=Times New Roman;gradientColor=#d5739d;" vertex="1" parent="1">
          <mxGeometry x="949" y="1009" width="70.00000000000004" height="30" as="geometry" />
        </mxCell>
        <mxCell id="flwHNEEucCCXMPrKP5ke-93" value="" style="edgeStyle=orthogonalEdgeStyle;rounded=0;orthogonalLoop=1;jettySize=auto;html=1;fontFamily=Times New Roman;" edge="1" parent="1" source="flwHNEEucCCXMPrKP5ke-33" target="flwHNEEucCCXMPrKP5ke-35">
          <mxGeometry relative="1" as="geometry" />
        </mxCell>
        <mxCell id="flwHNEEucCCXMPrKP5ke-94" style="edgeStyle=orthogonalEdgeStyle;rounded=0;orthogonalLoop=1;jettySize=auto;html=1;entryX=0;entryY=0.5;entryDx=0;entryDy=0;fontFamily=Times New Roman;" edge="1" parent="1" source="flwHNEEucCCXMPrKP5ke-33" target="flwHNEEucCCXMPrKP5ke-58">
          <mxGeometry relative="1" as="geometry" />
        </mxCell>
        <mxCell id="flwHNEEucCCXMPrKP5ke-33" value="C2B" style="rounded=0;whiteSpace=wrap;html=1;labelBackgroundColor=none;strokeColor=#9673a6;fillColor=#e1d5e7;align=center;fontStyle=0;fontSize=18;direction=east;fontFamily=Times New Roman;" vertex="1" parent="1">
          <mxGeometry x="1081" y="1009" width="80.00000000000004" height="30" as="geometry" />
        </mxCell>
        <mxCell id="flwHNEEucCCXMPrKP5ke-34" value="" style="edgeStyle=orthogonalEdgeStyle;rounded=0;orthogonalLoop=1;jettySize=auto;html=1;fontSize=18;fontStyle=0;fontFamily=Times New Roman;" edge="1" parent="1" source="flwHNEEucCCXMPrKP5ke-35" target="flwHNEEucCCXMPrKP5ke-37">
          <mxGeometry relative="1" as="geometry" />
        </mxCell>
        <mxCell id="flwHNEEucCCXMPrKP5ke-35" value="DySample" style="rounded=0;whiteSpace=wrap;html=1;labelBackgroundColor=none;strokeColor=#b85450;fillColor=#f8cecc;align=center;fontStyle=0;fontSize=18;direction=east;fontFamily=Times New Roman;" vertex="1" parent="1">
          <mxGeometry x="1071" y="916" width="100" height="30" as="geometry" />
        </mxCell>
        <mxCell id="flwHNEEucCCXMPrKP5ke-36" value="" style="edgeStyle=orthogonalEdgeStyle;rounded=0;orthogonalLoop=1;jettySize=auto;html=1;fontSize=18;fontStyle=0;fontFamily=Times New Roman;" edge="1" parent="1" source="flwHNEEucCCXMPrKP5ke-37" target="flwHNEEucCCXMPrKP5ke-39">
          <mxGeometry relative="1" as="geometry" />
        </mxCell>
        <mxCell id="flwHNEEucCCXMPrKP5ke-37" value="Concat" style="rounded=0;whiteSpace=wrap;html=1;labelBackgroundColor=none;strokeColor=#0e8088;fillColor=#b0e3e6;align=center;fontStyle=0;fontSize=18;direction=east;fontFamily=Times New Roman;" vertex="1" parent="1">
          <mxGeometry x="1081" y="814" width="80" height="30" as="geometry" />
        </mxCell>
        <mxCell id="flwHNEEucCCXMPrKP5ke-38" value="" style="edgeStyle=orthogonalEdgeStyle;rounded=0;orthogonalLoop=1;jettySize=auto;html=1;fontSize=18;fontStyle=0;fontFamily=Times New Roman;" edge="1" parent="1" source="flwHNEEucCCXMPrKP5ke-39" target="flwHNEEucCCXMPrKP5ke-42">
          <mxGeometry relative="1" as="geometry" />
        </mxCell>
        <mxCell id="flwHNEEucCCXMPrKP5ke-39" value="C3K2" style="rounded=0;whiteSpace=wrap;html=1;labelBackgroundColor=none;strokeColor=#d6b656;fillColor=#fff2cc;align=center;fontStyle=0;fontSize=18;direction=east;fontFamily=Times New Roman;" vertex="1" parent="1">
          <mxGeometry x="1086" y="730" width="70" height="30" as="geometry" />
        </mxCell>
        <mxCell id="flwHNEEucCCXMPrKP5ke-40" style="edgeStyle=orthogonalEdgeStyle;rounded=0;orthogonalLoop=1;jettySize=auto;html=1;fontSize=18;entryX=0.5;entryY=1;entryDx=0;entryDy=0;fontStyle=0;fontFamily=Times New Roman;" edge="1" parent="1" source="flwHNEEucCCXMPrKP5ke-42" target="flwHNEEucCCXMPrKP5ke-44">
          <mxGeometry relative="1" as="geometry" />
        </mxCell>
        <mxCell id="flwHNEEucCCXMPrKP5ke-41" style="edgeStyle=orthogonalEdgeStyle;rounded=0;orthogonalLoop=1;jettySize=auto;html=1;entryX=0;entryY=0.5;entryDx=0;entryDy=0;exitX=1;exitY=0.5;exitDx=0;exitDy=0;fontSize=18;fontStyle=0;fontFamily=Times New Roman;" edge="1" parent="1" source="flwHNEEucCCXMPrKP5ke-39" target="flwHNEEucCCXMPrKP5ke-51">
          <mxGeometry relative="1" as="geometry">
            <Array as="points">
              <mxPoint x="1200" y="745" />
              <mxPoint x="1200" y="709" />
            </Array>
          </mxGeometry>
        </mxCell>
        <mxCell id="flwHNEEucCCXMPrKP5ke-42" value="DySample" style="rounded=0;whiteSpace=wrap;html=1;labelBackgroundColor=none;strokeColor=#b85450;fillColor=#f8cecc;align=center;fontStyle=0;fontSize=18;direction=east;fontFamily=Times New Roman;" vertex="1" parent="1">
          <mxGeometry x="1071" y="637" width="100" height="30" as="geometry" />
        </mxCell>
        <mxCell id="flwHNEEucCCXMPrKP5ke-43" style="edgeStyle=orthogonalEdgeStyle;rounded=0;orthogonalLoop=1;jettySize=auto;html=1;fontSize=18;entryX=0;entryY=0.5;entryDx=0;entryDy=0;fontStyle=0;fontFamily=Times New Roman;" edge="1" parent="1" source="flwHNEEucCCXMPrKP5ke-44" target="flwHNEEucCCXMPrKP5ke-47">
          <mxGeometry relative="1" as="geometry" />
        </mxCell>
        <mxCell id="flwHNEEucCCXMPrKP5ke-44" value="Concat" style="rounded=0;whiteSpace=wrap;html=1;labelBackgroundColor=none;strokeColor=#0e8088;fillColor=#b0e3e6;align=center;fontStyle=0;fontSize=18;direction=east;fontFamily=Times New Roman;" vertex="1" parent="1">
          <mxGeometry x="1081" y="550" width="80" height="30" as="geometry" />
        </mxCell>
        <mxCell id="flwHNEEucCCXMPrKP5ke-45" style="edgeStyle=orthogonalEdgeStyle;rounded=0;orthogonalLoop=1;jettySize=auto;html=1;fontSize=18;entryX=0.5;entryY=0;entryDx=0;entryDy=0;fontStyle=0;fontFamily=Times New Roman;" edge="1" parent="1" source="flwHNEEucCCXMPrKP5ke-47" target="flwHNEEucCCXMPrKP5ke-49">
          <mxGeometry relative="1" as="geometry" />
        </mxCell>
        <mxCell id="flwHNEEucCCXMPrKP5ke-46" value="" style="edgeStyle=orthogonalEdgeStyle;rounded=0;orthogonalLoop=1;jettySize=auto;html=1;fontStyle=0;fontFamily=Times New Roman;" edge="1" parent="1" source="flwHNEEucCCXMPrKP5ke-47" target="flwHNEEucCCXMPrKP5ke-61">
          <mxGeometry relative="1" as="geometry" />
        </mxCell>
        <mxCell id="flwHNEEucCCXMPrKP5ke-47" value="C3K2" style="rounded=0;whiteSpace=wrap;html=1;labelBackgroundColor=none;strokeColor=#d6b656;fillColor=#fff2cc;align=center;fontStyle=0;fontSize=18;direction=east;fontFamily=Times New Roman;" vertex="1" parent="1">
          <mxGeometry x="1242" y="550" width="70" height="30" as="geometry" />
        </mxCell>
        <mxCell id="flwHNEEucCCXMPrKP5ke-48" style="edgeStyle=orthogonalEdgeStyle;rounded=0;orthogonalLoop=1;jettySize=auto;html=1;entryX=0.5;entryY=0;entryDx=0;entryDy=0;fontStyle=0;fontFamily=Times New Roman;" edge="1" parent="1" source="flwHNEEucCCXMPrKP5ke-49" target="flwHNEEucCCXMPrKP5ke-51">
          <mxGeometry relative="1" as="geometry" />
        </mxCell>
        <mxCell id="flwHNEEucCCXMPrKP5ke-49" value="Conv" style="rounded=0;whiteSpace=wrap;html=1;labelBackgroundColor=none;strokeColor=#ae4132;fillColor=#fad9d5;align=center;fontStyle=0;fontSize=18;direction=east;fontFamily=Times New Roman;" vertex="1" parent="1">
          <mxGeometry x="1242" y="617" width="70" height="30" as="geometry" />
        </mxCell>
        <mxCell id="flwHNEEucCCXMPrKP5ke-50" style="edgeStyle=orthogonalEdgeStyle;rounded=0;orthogonalLoop=1;jettySize=auto;html=1;fontSize=18;entryX=0.5;entryY=0;entryDx=0;entryDy=0;fontStyle=0;fontFamily=Times New Roman;" edge="1" parent="1" source="flwHNEEucCCXMPrKP5ke-51" target="flwHNEEucCCXMPrKP5ke-54">
          <mxGeometry relative="1" as="geometry">
            <mxPoint x="1277" y="656" as="targetPoint" />
          </mxGeometry>
        </mxCell>
        <mxCell id="flwHNEEucCCXMPrKP5ke-51" value="Concat" style="rounded=0;whiteSpace=wrap;html=1;labelBackgroundColor=none;strokeColor=#0e8088;fillColor=#b0e3e6;align=center;fontStyle=0;fontSize=18;direction=east;fontFamily=Times New Roman;" vertex="1" parent="1">
          <mxGeometry x="1237" y="694" width="80" height="30" as="geometry" />
        </mxCell>
        <mxCell id="flwHNEEucCCXMPrKP5ke-52" style="edgeStyle=orthogonalEdgeStyle;rounded=0;orthogonalLoop=1;jettySize=auto;html=1;fontSize=18;entryX=0.5;entryY=0;entryDx=0;entryDy=0;fontStyle=0;fontFamily=Times New Roman;" edge="1" parent="1" source="flwHNEEucCCXMPrKP5ke-54" target="flwHNEEucCCXMPrKP5ke-56">
          <mxGeometry relative="1" as="geometry" />
        </mxCell>
        <mxCell id="flwHNEEucCCXMPrKP5ke-53" style="edgeStyle=orthogonalEdgeStyle;rounded=0;orthogonalLoop=1;jettySize=auto;html=1;fontFamily=Times New Roman;" edge="1" parent="1" source="flwHNEEucCCXMPrKP5ke-54" target="flwHNEEucCCXMPrKP5ke-91">
          <mxGeometry relative="1" as="geometry" />
        </mxCell>
        <mxCell id="flwHNEEucCCXMPrKP5ke-54" value="C3K2" style="rounded=0;whiteSpace=wrap;html=1;labelBackgroundColor=none;strokeColor=#d6b656;fillColor=#fff2cc;align=center;fontStyle=0;fontSize=18;direction=east;fontFamily=Times New Roman;" vertex="1" parent="1">
          <mxGeometry x="1242" y="776" width="70" height="30" as="geometry" />
        </mxCell>
        <mxCell id="flwHNEEucCCXMPrKP5ke-55" style="edgeStyle=orthogonalEdgeStyle;rounded=0;orthogonalLoop=1;jettySize=auto;html=1;fontSize=18;entryX=0.5;entryY=0;entryDx=0;entryDy=0;fontStyle=0;fontFamily=Times New Roman;" edge="1" parent="1" source="flwHNEEucCCXMPrKP5ke-56" target="flwHNEEucCCXMPrKP5ke-58">
          <mxGeometry relative="1" as="geometry" />
        </mxCell>
        <mxCell id="flwHNEEucCCXMPrKP5ke-56" value="Conv" style="rounded=0;whiteSpace=wrap;html=1;labelBackgroundColor=none;strokeColor=#ae4132;fillColor=#fad9d5;align=center;fontStyle=0;fontSize=18;direction=east;fontFamily=Times New Roman;" vertex="1" parent="1">
          <mxGeometry x="1242" y="859" width="70" height="30" as="geometry" />
        </mxCell>
        <mxCell id="flwHNEEucCCXMPrKP5ke-57" value="" style="edgeStyle=orthogonalEdgeStyle;rounded=0;orthogonalLoop=1;jettySize=auto;html=1;fontSize=18;fontStyle=0;fontFamily=Times New Roman;" edge="1" parent="1" source="flwHNEEucCCXMPrKP5ke-58" target="flwHNEEucCCXMPrKP5ke-60">
          <mxGeometry relative="1" as="geometry" />
        </mxCell>
        <mxCell id="flwHNEEucCCXMPrKP5ke-58" value="Concat" style="rounded=0;whiteSpace=wrap;html=1;labelBackgroundColor=none;strokeColor=#0e8088;fillColor=#b0e3e6;align=center;fontStyle=0;fontSize=18;direction=east;fontFamily=Times New Roman;" vertex="1" parent="1">
          <mxGeometry x="1237" y="933" width="80" height="30" as="geometry" />
        </mxCell>
        <mxCell id="flwHNEEucCCXMPrKP5ke-59" style="edgeStyle=orthogonalEdgeStyle;rounded=0;orthogonalLoop=1;jettySize=auto;html=1;fontFamily=Times New Roman;" edge="1" parent="1" source="flwHNEEucCCXMPrKP5ke-60" target="flwHNEEucCCXMPrKP5ke-92">
          <mxGeometry relative="1" as="geometry" />
        </mxCell>
        <mxCell id="flwHNEEucCCXMPrKP5ke-60" value="C3K2" style="rounded=0;whiteSpace=wrap;html=1;labelBackgroundColor=none;strokeColor=#d6b656;fillColor=#fff2cc;align=center;fontStyle=0;fontSize=18;direction=east;fontFamily=Times New Roman;" vertex="1" parent="1">
          <mxGeometry x="1242" y="1009" width="70" height="30" as="geometry" />
        </mxCell>
        <mxCell id="flwHNEEucCCXMPrKP5ke-61" value="Detect" style="rounded=0;whiteSpace=wrap;html=1;labelBackgroundColor=none;strokeColor=#23445d;fillColor=#bac8d3;align=center;fontStyle=0;fontSize=18;movable=1;resizable=1;rotatable=1;deletable=1;editable=1;locked=0;connectable=1;direction=east;fontFamily=Times New Roman;" vertex="1" parent="1">
          <mxGeometry x="1399" y="550" width="80" height="30" as="geometry" />
        </mxCell>
        <mxCell id="flwHNEEucCCXMPrKP5ke-62" value="" style="group;strokeColor=default;dashed=1;dashPattern=8 8;fontSize=18;container=0;direction=east;rotation=0;fontStyle=0;fontFamily=Times New Roman;" vertex="1" connectable="0" parent="1">
          <mxGeometry x="1040" y="360" width="470" height="170" as="geometry" />
        </mxCell>
        <mxCell id="flwHNEEucCCXMPrKP5ke-63" value="n" style="text;html=1;align=center;verticalAlign=middle;resizable=0;points=[];autosize=1;strokeColor=none;fillColor=none;fontSize=16;rotation=0;fontStyle=0;fontFamily=Times New Roman;" vertex="1" parent="1">
          <mxGeometry x="1296" y="416.25" width="30" height="30" as="geometry" />
        </mxCell>
        <mxCell id="flwHNEEucCCXMPrKP5ke-64" style="edgeStyle=orthogonalEdgeStyle;rounded=0;orthogonalLoop=1;jettySize=auto;html=1;entryX=0;entryY=0.5;entryDx=0;entryDy=0;fontStyle=0;fontFamily=Times New Roman;" edge="1" parent="1" source="flwHNEEucCCXMPrKP5ke-67" target="flwHNEEucCCXMPrKP5ke-72">
          <mxGeometry relative="1" as="geometry" />
        </mxCell>
        <mxCell id="flwHNEEucCCXMPrKP5ke-65" value="Split" style="edgeLabel;html=1;align=center;verticalAlign=middle;resizable=0;points=[];labelBackgroundColor=none;fontSize=13;fontStyle=0;fontFamily=Times New Roman;" vertex="1" connectable="0" parent="flwHNEEucCCXMPrKP5ke-64">
          <mxGeometry x="-0.0424" y="-1" relative="1" as="geometry">
            <mxPoint x="-1" y="8" as="offset" />
          </mxGeometry>
        </mxCell>
        <mxCell id="flwHNEEucCCXMPrKP5ke-66" style="edgeStyle=orthogonalEdgeStyle;rounded=0;orthogonalLoop=1;jettySize=auto;html=1;fontStyle=0;fontFamily=Times New Roman;" edge="1" parent="1" source="flwHNEEucCCXMPrKP5ke-67">
          <mxGeometry relative="1" as="geometry">
            <Array as="points">
              <mxPoint x="1198" y="474" />
              <mxPoint x="1198" y="450" />
              <mxPoint x="1410" y="450" />
            </Array>
            <mxPoint x="1410" y="474" as="targetPoint" />
          </mxGeometry>
        </mxCell>
        <mxCell id="flwHNEEucCCXMPrKP5ke-67" value="CBS" style="rounded=0;whiteSpace=wrap;html=1;fillColor=#ffcc99;fontSize=15;fontFamily=Times New Roman;rotation=0;fontStyle=0;strokeColor=#36393d;" vertex="1" parent="1">
          <mxGeometry x="1134" y="459.25" width="50" height="30" as="geometry" />
        </mxCell>
        <mxCell id="flwHNEEucCCXMPrKP5ke-68" value="" style="edgeStyle=orthogonalEdgeStyle;rounded=0;orthogonalLoop=1;jettySize=auto;html=1;fontStyle=0;fontFamily=Times New Roman;entryX=0;entryY=0.5;entryDx=0;entryDy=0;" edge="1" parent="1" source="flwHNEEucCCXMPrKP5ke-69" target="flwHNEEucCCXMPrKP5ke-71">
          <mxGeometry relative="1" as="geometry">
            <mxPoint x="1425" y="474.29999999999995" as="targetPoint" />
            <Array as="points">
              <mxPoint x="1426" y="474" />
              <mxPoint x="1426" y="475" />
            </Array>
          </mxGeometry>
        </mxCell>
        <mxCell id="flwHNEEucCCXMPrKP5ke-69" value="BiFormer" style="rounded=0;whiteSpace=wrap;html=1;fillColor=#e6d0de;fontSize=15;fontFamily=Times New Roman;rotation=0;fontStyle=0;gradientColor=#d5739d;strokeColor=#996185;" vertex="1" parent="1">
          <mxGeometry x="1327" y="459.25" width="70" height="30" as="geometry" />
        </mxCell>
        <mxCell id="flwHNEEucCCXMPrKP5ke-70" style="edgeStyle=orthogonalEdgeStyle;rounded=0;orthogonalLoop=1;jettySize=auto;html=1;fontStyle=0;fontFamily=Times New Roman;" edge="1" parent="1" source="flwHNEEucCCXMPrKP5ke-71">
          <mxGeometry relative="1" as="geometry">
            <mxPoint x="1503" y="474.25" as="targetPoint" />
          </mxGeometry>
        </mxCell>
        <mxCell id="flwHNEEucCCXMPrKP5ke-71" value="CBS" style="rounded=0;whiteSpace=wrap;html=1;fillColor=#ffcc99;fontSize=15;fontFamily=Times New Roman;rotation=0;fontStyle=0;strokeColor=#36393d;" vertex="1" parent="1">
          <mxGeometry x="1431" y="459.25" width="50" height="30" as="geometry" />
        </mxCell>
        <mxCell id="flwHNEEucCCXMPrKP5ke-72" value="BiFormer" style="rounded=0;whiteSpace=wrap;html=1;fillColor=#e6d0de;fontSize=15;fontFamily=Times New Roman;rotation=0;fontStyle=0;gradientColor=#d5739d;strokeColor=#996185;" vertex="1" parent="1">
          <mxGeometry x="1224" y="459.25" width="70" height="30" as="geometry" />
        </mxCell>
        <mxCell id="flwHNEEucCCXMPrKP5ke-73" value="···" style="text;html=1;align=center;verticalAlign=middle;resizable=0;points=[];autosize=1;strokeColor=none;fillColor=none;fontSize=15;fontStyle=1;rotation=0;fontFamily=Times New Roman;" vertex="1" parent="1">
          <mxGeometry x="1286" y="460.25" width="40" height="30" as="geometry" />
        </mxCell>
        <mxCell id="flwHNEEucCCXMPrKP5ke-74" value="" style="shape=curlyBracket;whiteSpace=wrap;html=1;rounded=1;labelPosition=left;verticalLabelPosition=middle;align=right;verticalAlign=middle;rotation=-90;fontSize=16;fontStyle=0;fontFamily=Times New Roman;" vertex="1" parent="1">
          <mxGeometry x="1296.94" y="419.43" width="20" height="159.62" as="geometry" />
        </mxCell>
        <mxCell id="flwHNEEucCCXMPrKP5ke-75" value="n" style="text;html=1;align=center;verticalAlign=middle;resizable=0;points=[];autosize=1;strokeColor=none;fillColor=none;fontSize=16;rotation=0;fontStyle=0;fontFamily=Times New Roman;" vertex="1" parent="1">
          <mxGeometry x="1291.94" y="498" width="30" height="30" as="geometry" />
        </mxCell>
        <mxCell id="flwHNEEucCCXMPrKP5ke-76" value="C2B" style="rounded=0;whiteSpace=wrap;html=1;labelBackgroundColor=none;strokeColor=#9673a6;fillColor=#e1d5e7;align=center;fontStyle=0;fontSize=18;direction=east;rotation=0;fontFamily=Times New Roman;" vertex="1" parent="1">
          <mxGeometry x="1045" y="459.25" width="70" height="30" as="geometry" />
        </mxCell>
        <mxCell id="flwHNEEucCCXMPrKP5ke-77" value="&lt;span style=&quot;color: rgb(0, 0, 0); font-style: normal; font-variant-ligatures: normal; font-variant-caps: normal; letter-spacing: normal; orphans: 2; text-indent: 0px; text-transform: none; widows: 2; word-spacing: 0px; -webkit-text-stroke-width: 0px; white-space: normal; background-color: rgb(236, 236, 236); text-decoration-thickness: initial; text-decoration-style: initial; text-decoration-color: initial; float: none; display: inline !important;&quot;&gt;&lt;font&gt;=&lt;/font&gt;&lt;/span&gt;" style="text;whiteSpace=wrap;html=1;align=center;fontSize=15;rotation=0;fontStyle=0;fontFamily=Times New Roman;" vertex="1" parent="1">
          <mxGeometry x="1117" y="459.25" width="20" height="20" as="geometry" />
        </mxCell>
        <mxCell id="flwHNEEucCCXMPrKP5ke-78" style="edgeStyle=orthogonalEdgeStyle;rounded=0;orthogonalLoop=1;jettySize=auto;html=1;entryX=0;entryY=0.5;entryDx=0;entryDy=0;fontStyle=0;fontFamily=Times New Roman;" edge="1" parent="1" source="flwHNEEucCCXMPrKP5ke-80" target="flwHNEEucCCXMPrKP5ke-81">
          <mxGeometry relative="1" as="geometry" />
        </mxCell>
        <mxCell id="flwHNEEucCCXMPrKP5ke-79" style="edgeStyle=orthogonalEdgeStyle;rounded=0;orthogonalLoop=1;jettySize=auto;html=1;fontStyle=0;fontFamily=Times New Roman;" edge="1" parent="1" source="flwHNEEucCCXMPrKP5ke-80">
          <mxGeometry relative="1" as="geometry">
            <Array as="points">
              <mxPoint x="1198" y="388" />
              <mxPoint x="1198" y="367" />
              <mxPoint x="1410" y="367" />
            </Array>
            <mxPoint x="1410" y="388" as="targetPoint" />
          </mxGeometry>
        </mxCell>
        <mxCell id="flwHNEEucCCXMPrKP5ke-80" value="Conv" style="rounded=0;whiteSpace=wrap;html=1;labelBackgroundColor=none;strokeColor=#82b366;fillColor=#d5e8d4;align=center;fontStyle=0;fontSize=16;direction=east;rotation=0;fontFamily=Times New Roman;" vertex="1" parent="1">
          <mxGeometry x="1133" y="373.25" width="50" height="30" as="geometry" />
        </mxCell>
        <mxCell id="flwHNEEucCCXMPrKP5ke-81" value="WTConv" style="rounded=0;whiteSpace=wrap;html=1;labelBackgroundColor=none;strokeColor=#36393d;fillColor=#ffcccc;align=center;fontStyle=0;fontSize=16;direction=east;rotation=0;fontFamily=Times New Roman;" vertex="1" parent="1">
          <mxGeometry x="1224" y="373.25" width="70" height="30" as="geometry" />
        </mxCell>
        <mxCell id="flwHNEEucCCXMPrKP5ke-82" style="edgeStyle=orthogonalEdgeStyle;rounded=0;orthogonalLoop=1;jettySize=auto;html=1;fontStyle=0;fontFamily=Times New Roman;" edge="1" parent="1" source="flwHNEEucCCXMPrKP5ke-83">
          <mxGeometry relative="1" as="geometry">
            <mxPoint x="1505" y="388.25" as="targetPoint" />
          </mxGeometry>
        </mxCell>
        <mxCell id="flwHNEEucCCXMPrKP5ke-83" value="Conv" style="rounded=0;whiteSpace=wrap;html=1;labelBackgroundColor=none;strokeColor=#82b366;fillColor=#d5e8d4;align=center;fontStyle=0;fontSize=16;direction=east;rotation=0;fontFamily=Times New Roman;" vertex="1" parent="1">
          <mxGeometry x="1431" y="373.25" width="50" height="30" as="geometry" />
        </mxCell>
        <mxCell id="flwHNEEucCCXMPrKP5ke-84" value="" style="edgeStyle=orthogonalEdgeStyle;rounded=0;orthogonalLoop=1;jettySize=auto;html=1;fontSize=16;fontStyle=0;fontFamily=Times New Roman;entryX=0;entryY=0.5;entryDx=0;entryDy=0;" edge="1" parent="1" source="flwHNEEucCCXMPrKP5ke-85" target="flwHNEEucCCXMPrKP5ke-83">
          <mxGeometry relative="1" as="geometry">
            <mxPoint x="1426" y="388.29999999999995" as="targetPoint" />
          </mxGeometry>
        </mxCell>
        <mxCell id="flwHNEEucCCXMPrKP5ke-85" value="WTConv" style="rounded=0;whiteSpace=wrap;html=1;labelBackgroundColor=none;strokeColor=#36393d;fillColor=#ffcccc;align=center;fontStyle=0;fontSize=16;direction=east;rotation=0;fontFamily=Times New Roman;" vertex="1" parent="1">
          <mxGeometry x="1326" y="373.25" width="70" height="30" as="geometry" />
        </mxCell>
        <mxCell id="flwHNEEucCCXMPrKP5ke-86" value="" style="shape=curlyBracket;whiteSpace=wrap;html=1;rounded=1;labelPosition=left;verticalLabelPosition=middle;align=right;verticalAlign=middle;rotation=-90;fontSize=16;size=0.5;fontStyle=0;fontFamily=Times New Roman;" vertex="1" parent="1">
          <mxGeometry x="1300.19" y="339.69" width="20" height="153.13" as="geometry" />
        </mxCell>
        <mxCell id="flwHNEEucCCXMPrKP5ke-87" value="···" style="text;html=1;align=center;verticalAlign=middle;resizable=0;points=[];autosize=1;strokeColor=none;fillColor=none;fontSize=15;fontStyle=1;rotation=0;fontFamily=Times New Roman;" vertex="1" parent="1">
          <mxGeometry x="1288" y="375.25" width="40" height="30" as="geometry" />
        </mxCell>
        <mxCell id="flwHNEEucCCXMPrKP5ke-88" value="C3K2-W" style="rounded=0;whiteSpace=wrap;html=1;labelBackgroundColor=none;strokeColor=#d79b00;fillColor=#ffe6cc;align=center;fontStyle=0;fontSize=18;direction=east;rotation=0;fontFamily=Times New Roman;" vertex="1" parent="1">
          <mxGeometry x="1047" y="373.25" width="70" height="30" as="geometry" />
        </mxCell>
        <mxCell id="flwHNEEucCCXMPrKP5ke-89" value="&lt;span style=&quot;color: rgb(0, 0, 0); font-style: normal; font-variant-ligatures: normal; font-variant-caps: normal; letter-spacing: normal; orphans: 2; text-indent: 0px; text-transform: none; widows: 2; word-spacing: 0px; -webkit-text-stroke-width: 0px; white-space: normal; background-color: rgb(236, 236, 236); text-decoration-thickness: initial; text-decoration-style: initial; text-decoration-color: initial; float: none; display: inline !important;&quot;&gt;&lt;font&gt;=&lt;/font&gt;&lt;/span&gt;" style="text;whiteSpace=wrap;html=1;align=center;fontSize=15;rotation=0;fontStyle=0;fontFamily=Times New Roman;" vertex="1" parent="1">
          <mxGeometry x="1116" y="373.25" width="20" height="20" as="geometry" />
        </mxCell>
        <mxCell id="flwHNEEucCCXMPrKP5ke-90" value="Split" style="edgeLabel;html=1;align=center;verticalAlign=middle;resizable=0;points=[];labelBackgroundColor=none;fontSize=13;fontStyle=0;fontFamily=Times New Roman;" vertex="1" connectable="0" parent="1">
          <mxGeometry x="1202" y="398.25" as="geometry" />
        </mxCell>
        <mxCell id="flwHNEEucCCXMPrKP5ke-91" value="Detect" style="rounded=0;whiteSpace=wrap;html=1;labelBackgroundColor=none;strokeColor=#23445d;fillColor=#bac8d3;align=center;fontStyle=0;fontSize=18;movable=1;resizable=1;rotatable=1;deletable=1;editable=1;locked=0;connectable=1;direction=east;fontFamily=Times New Roman;" vertex="1" parent="1">
          <mxGeometry x="1399" y="776" width="80" height="30" as="geometry" />
        </mxCell>
        <mxCell id="flwHNEEucCCXMPrKP5ke-92" value="Detect" style="rounded=0;whiteSpace=wrap;html=1;labelBackgroundColor=none;strokeColor=#23445d;fillColor=#bac8d3;align=center;fontStyle=0;fontSize=18;movable=1;resizable=1;rotatable=1;deletable=1;editable=1;locked=0;connectable=1;direction=east;fontFamily=Times New Roman;" vertex="1" parent="1">
          <mxGeometry x="1401" y="1009" width="80" height="30" as="geometry" />
        </mxCell>
      </root>
    </mxGraphModel>
  </diagram>
</mxfile>
